<?xml version="1.0" encoding="UTF-8" standalone="no"?>
<!-- Created with Inkscape (http://www.inkscape.org/) -->

<svg
   version="1.1"
   id="svg1"
   width="600"
   height="600"
   viewBox="0 0 600 600"
   sodipodi:docname="1272.eps"
   xmlns:inkscape="http://www.inkscape.org/namespaces/inkscape"
   xmlns:sodipodi="http://sodipodi.sourceforge.net/DTD/sodipodi-0.dtd"
   xmlns="http://www.w3.org/2000/svg"
   xmlns:svg="http://www.w3.org/2000/svg">
  <defs
     id="defs1" />
  <sodipodi:namedview
     id="namedview1"
     pagecolor="#ffffff"
     bordercolor="#000000"
     borderopacity="0.25"
     inkscape:showpageshadow="2"
     inkscape:pageopacity="0.0"
     inkscape:pagecheckerboard="0"
     inkscape:deskcolor="#d1d1d1">
    <inkscape:page
       x="0"
       y="0"
       inkscape:label="1"
       id="page1"
       width="600"
       height="600"
       margin="0"
       bleed="0" />
  </sodipodi:namedview>
  <g
     id="g1"
     inkscape:groupmode="layer"
     inkscape:label="1">
    <g
       id="group-R5">
      <path
         id="path2"
         d="M 4500,0 H 0 V 4500 H 4500 V 0"
         style="fill:#ffffff;fill-opacity:1;fill-rule:nonzero;stroke:none"
         transform="matrix(0.13333333,0,0,-0.13333333,0,600)" />
      <path
         id="path3"
         d="m 2032.49,3208 c -2.86,-58.56 -6.99,-121.54 -12.49,-189.24 0,0 -79.56,-3.89 -187.97,4.57 L 1575.58,3469.57 2032.49,3208"
         style="fill:#ffffff;fill-opacity:1;fill-rule:nonzero;stroke:none"
         transform="matrix(0.13333333,0,0,-0.13333333,0,600)" />
      <path
         id="path4"
         d="m 1575.56,3469.59 444.43,-450.84 -194.54,5.11 z"
         style="fill:#282828;fill-opacity:1;fill-rule:nonzero;stroke:none"
         transform="matrix(0.13333333,0,0,-0.13333333,0,600)" />
      <path
         id="path5"
         d="m 1673.78,3369.95 c 21.3,-15.7 41.2,-32.78 60.59,-50.35 9.83,-8.66 19.15,-17.82 28.71,-26.74 9.41,-9.07 18.6,-18.35 27.91,-27.52 l 27.14,-28.28 c 8.77,-9.7 17.82,-19.13 26.33,-29.09 17.29,-19.64 34.08,-39.78 49.45,-61.32 -25.52,11.53 -47.57,26.48 -68.57,42.47 -20.87,16.12 -40.39,33.57 -58.71,52.21 -18.32,18.63 -35.49,38.39 -51.31,59.49 -15.67,21.24 -30.32,43.49 -41.54,69.13"
         style="fill:#ffffff;fill-opacity:1;fill-rule:nonzero;stroke:none"
         transform="matrix(0.13333333,0,0,-0.13333333,0,600)" />
      <path
         id="path6"
         d="m 1691.95,3288.1 159.69,-229.91 h 98.12 l -33.85,66.14 78.29,-79.43 15.28,-15.5 -11.24,-11.28 -172.79,5.74 -133.5,253.65 v 10.59"
         style="fill:#ffffff;fill-opacity:1;fill-rule:nonzero;stroke:none"
         transform="matrix(0.13333333,0,0,-0.13333333,0,600)" />
      <path
         id="path7"
         d="m 1839.45,3035.09 c 80.54,-5.98 144.67,-5.11 169.17,-4.43 4.77,59.75 8.53,116.99 11.22,170.42 l -411.01,235.29 z m 131.54,-29.49 c -34.05,0 -83.24,1.05 -139.92,5.47 -4.04,0.32 -7.67,2.61 -9.7,6.13 l -256.46,446.25 c -2.76,4.81 -1.96,10.88 1.96,14.81 3.93,3.92 9.99,4.74 14.81,1.98 l 456.91,-261.57 c 4.01,-2.3 6.4,-6.65 6.18,-11.27 -2.88,-59.05 -7.09,-122.85 -12.52,-189.64 -0.5,-6.15 -5.49,-10.98 -11.65,-11.28 -0.39,-0.02 -18.81,-0.88 -49.61,-0.88"
         style="fill:#282828;fill-opacity:1;fill-rule:nonzero;stroke:none"
         transform="matrix(0.13333333,0,0,-0.13333333,0,600)" />
      <path
         id="path8"
         d="m 2011.23,3010.12 -444.43,450.84 17.51,17.26 444.43,-450.85 -17.51,-17.25"
         style="fill:#282828;fill-opacity:1;fill-rule:nonzero;stroke:none"
         transform="matrix(0.13333333,0,0,-0.13333333,0,600)" />
      <path
         id="path9"
         d="m 1599.09,3470.12 384.34,-318.62 -399.56,299.31 z"
         style="fill:#282828;fill-opacity:1;fill-rule:nonzero;stroke:none"
         transform="matrix(0.13333333,0,0,-0.13333333,0,600)" />
      <path
         id="path10"
         d="m 2461.75,2219.7 c -0.15,61.31 1.47,129.16 5.16,204.24 2.86,58.56 6.99,121.54 12.49,189.24 0,0 79.56,3.89 187.96,-4.57 37.72,-2.95 78.97,-7.37 121.6,-13.96 0,0 -71.05,-14.21 -62.15,-80.89 6.73,-50.49 -73.16,-117.65 -112.3,-147.3 -12.49,-9.49 -20.85,-15.09 -20.85,-15.09 -33.87,8.11 -92.58,-21.05 -118.74,-76.51 v -0.05 c -7.66,-16.17 -12.53,-34.66 -13.17,-55.11"
         style="fill:#282828;fill-opacity:1;fill-rule:nonzero;stroke:none"
         transform="matrix(0.13333333,0,0,-0.13333333,0,600)" />
      <path
         id="path11"
         d="m 2763.19,2592.03 c -25.97,-0.97 -47.63,-21.64 -47.63,-21.64 l -34.61,32.7 v -53.39 l 27.41,-51.95 c 0,0 25.01,72.15 54.83,94.28"
         style="fill:#ffffff;fill-opacity:1;fill-rule:nonzero;stroke:none"
         transform="matrix(0.13333333,0,0,-0.13333333,0,600)" />
      <path
         id="path12"
         d="m 2466.37,2412.48 23.55,61.56 115.6,-61.56 8.99,-46.02 c -12.49,-9.49 -20.85,-15.09 -20.85,-15.09 -33.87,8.11 -92.58,-21.05 -118.74,-76.51 -12.19,46.41 44.89,87.57 44.89,87.57 l -53.44,50.05"
         style="fill:#ffffff;fill-opacity:1;fill-rule:nonzero;stroke:none"
         transform="matrix(0.13333333,0,0,-0.13333333,0,600)" />
      <path
         id="path13"
         d="m 2490.77,2601.28 c -4.97,-62.44 -8.87,-122.25 -11.58,-177.94 -2.1,-42.81 -3.56,-84.19 -4.39,-123.75 30.26,45.56 80.86,69.6 116.07,64.79 3.55,2.49 9.23,6.57 16.2,11.87 71.48,54.15 111.69,104.94 107.56,135.89 -4.89,36.67 11.33,61.12 31.28,76.13 -25.83,3.26 -52.44,5.97 -79.5,8.09 -83.65,6.52 -150.48,5.62 -175.64,4.92 z m -29.01,-393.88 c -0.07,0 -0.13,0 -0.19,0.01 -6.71,0.09 -12.1,5.55 -12.11,12.26 -0.15,62.9 1.58,131.83 5.18,204.87 2.88,59.19 7.09,122.99 12.51,189.64 0.51,6.15 5.49,10.98 11.65,11.28 0.81,0.04 81.59,3.82 189.52,-4.6 42.31,-3.31 83.53,-8.04 122.52,-14.07 5.89,-0.91 10.27,-5.92 10.4,-11.87 0.14,-5.96 -4.03,-11.16 -9.87,-12.33 -2.41,-0.5 -59.61,-12.96 -52.38,-67.19 7.02,-52.59 -59.78,-115.35 -117.06,-158.73 -12.61,-9.59 -21.06,-15.27 -21.41,-15.51 -2.85,-1.92 -6.38,-2.55 -9.72,-1.75 -26.2,6.26 -79.82,-17.58 -104.49,-69.23 -0.09,-0.21 -0.18,-0.42 -0.27,-0.63 -7.42,-15.63 -11.45,-32.53 -12.01,-50.23 -0.2,-6.65 -5.65,-11.92 -12.27,-11.92"
         style="fill:#282828;fill-opacity:1;fill-rule:nonzero;stroke:none"
         transform="matrix(0.13333333,0,0,-0.13333333,0,600)" />
      <path
         id="path14"
         d="m 2464.3,2423.94 c 2.85,58.56 6.98,121.54 12.49,189.24 0,0 79.55,3.89 187.96,-4.57 l 256.45,-446.25 -456.9,261.58"
         style="fill:#ffffff;fill-opacity:1;fill-rule:nonzero;stroke:none"
         transform="matrix(0.13333333,0,0,-0.13333333,0,600)" />
      <path
         id="path15"
         d="m 2823,2261.99 c -21.3,15.7 -41.19,32.78 -60.59,50.35 -9.83,8.66 -19.15,17.82 -28.71,26.74 -9.4,9.07 -18.6,18.35 -27.91,27.52 l -27.14,28.28 c -8.78,9.7 -17.82,19.13 -26.33,29.09 -17.29,19.64 -34.08,39.78 -49.45,61.32 25.52,-11.53 47.57,-26.49 68.58,-42.48 20.85,-16.12 40.39,-33.56 58.7,-52.2 18.32,-18.63 35.48,-38.39 51.31,-59.49 15.67,-21.24 30.32,-43.49 41.54,-69.13"
         style="fill:#ffffff;fill-opacity:1;fill-rule:nonzero;stroke:none"
         transform="matrix(0.13333333,0,0,-0.13333333,0,600)" />
      <path
         id="path16"
         d="m 2476.94,2430.86 411.01,-235.28 -230.62,401.27 c -80.61,5.99 -144.68,5.1 -169.18,4.43 -4.75,-59.63 -8.51,-116.88 -11.21,-170.42 z m 444.26,-280.78 c -2.09,0 -4.19,0.53 -6.1,1.62 l -456.92,261.57 c -4,2.3 -6.38,6.65 -6.16,11.27 2.88,59.19 7.09,122.99 12.51,189.64 0.51,6.15 5.49,10.98 11.65,11.28 0.81,0.04 81.59,3.82 189.52,-4.6 4.06,-0.31 7.68,-2.6 9.71,-6.12 l 256.46,-446.24 c 2.76,-4.82 1.96,-10.89 -1.97,-14.82 -2.36,-2.37 -5.52,-3.6 -8.7,-3.6"
         style="fill:#282828;fill-opacity:1;fill-rule:nonzero;stroke:none"
         transform="matrix(0.13333333,0,0,-0.13333333,0,600)" />
      <path
         id="path17"
         d="m 2912.47,2153.72 -444.43,450.85 17.51,17.25 444.43,-450.84 -17.51,-17.26"
         style="fill:#282828;fill-opacity:1;fill-rule:nonzero;stroke:none"
         transform="matrix(0.13333333,0,0,-0.13333333,0,600)" />
      <path
         id="path18"
         d="m 2895.29,2164.34 -269.94,399.47 289.95,-385.2 z"
         style="fill:#282828;fill-opacity:1;fill-rule:nonzero;stroke:none"
         transform="matrix(0.13333333,0,0,-0.13333333,0,600)" />
      <path
         id="path19"
         d="m 2476.8,2572.17 27.06,-134.05 c 0,0 251.4,-149.11 310.4,-214.53 l 97.97,-52.12 c 0,0 -317.16,241.62 -386.82,385.44 l -38.66,46.18 -9.95,-30.92"
         style="fill:#282828;fill-opacity:1;fill-rule:nonzero;stroke:none"
         transform="matrix(0.13333333,0,0,-0.13333333,0,600)" />
      <path
         id="path20"
         d="m 2037.65,2219.7 c 0.15,61.31 -1.48,129.16 -5.16,204.24 -2.86,58.56 -6.99,121.54 -12.49,189.24 0,0 -79.56,3.89 -187.97,-4.57 -37.71,-2.95 -78.96,-7.37 -121.59,-13.96 0,0 71.04,-14.21 62.15,-80.89 -6.74,-50.49 73.16,-117.65 112.29,-147.3 12.49,-9.49 20.85,-15.09 20.85,-15.09 33.88,8.11 92.59,-21.05 118.74,-76.51 v -0.05 c 7.67,-16.17 12.54,-34.66 13.18,-55.11"
         style="fill:#282828;fill-opacity:1;fill-rule:nonzero;stroke:none"
         transform="matrix(0.13333333,0,0,-0.13333333,0,600)" />
      <path
         id="path21"
         d="m 1736.2,2592.03 c 25.98,-0.97 47.64,-21.64 47.64,-21.64 l 34.61,32.7 v -53.39 l -27.41,-51.95 c 0,0 -25.01,72.15 -54.84,94.28"
         style="fill:#ffffff;fill-opacity:1;fill-rule:nonzero;stroke:none"
         transform="matrix(0.13333333,0,0,-0.13333333,0,600)" />
      <path
         id="path22"
         d="m 2033.03,2412.48 -23.56,61.56 -115.59,-61.56 -9,-46.02 c 12.49,-9.49 20.85,-15.09 20.85,-15.09 33.88,8.11 92.59,-21.05 118.74,-76.51 12.2,46.41 -44.89,87.57 -44.89,87.57 l 53.45,50.05"
         style="fill:#ffffff;fill-opacity:1;fill-rule:nonzero;stroke:none"
         transform="matrix(0.13333333,0,0,-0.13333333,0,600)" />
      <path
         id="path23"
         d="m 1917.73,2364.98 c 34.39,0 79.16,-23.66 106.86,-65.39 -0.81,39.59 -2.28,80.97 -4.38,123.75 -2.71,55.56 -6.6,115.38 -11.59,177.94 -25.16,0.7 -92.06,1.59 -175.64,-4.92 -27.06,-2.12 -53.65,-4.83 -79.5,-8.09 19.96,-15.01 36.19,-39.46 31.3,-76.13 -4.14,-30.95 36.06,-81.74 107.53,-135.88 6.98,-5.31 12.67,-9.39 16.22,-11.88 2.96,0.4 6.04,0.6 9.2,0.6 z m 119.92,-157.58 c -6.63,0 -12.08,5.27 -12.29,11.92 -0.55,17.7 -4.59,34.61 -12,50.23 -0.1,0.21 -0.2,0.43 -0.28,0.65 -24.68,51.65 -78.29,75.49 -104.49,69.21 -3.34,-0.8 -6.85,-0.16 -9.7,1.75 -0.35,0.23 -8.81,5.92 -21.44,15.51 -57.26,43.38 -124.06,106.14 -117.05,158.72 7.3,54.62 -49.93,66.71 -52.37,67.2 -5.84,1.17 -10.01,6.37 -9.88,12.33 0.14,5.95 4.52,10.96 10.41,11.87 39,6.03 80.21,10.76 122.51,14.07 107.94,8.43 188.72,4.64 189.53,4.6 6.16,-0.3 11.15,-5.13 11.65,-11.28 5.43,-66.79 9.64,-130.6 12.52,-189.64 3.57,-72.94 5.32,-141.87 5.17,-204.87 -0.01,-6.71 -5.4,-12.17 -12.11,-12.26 -0.07,-0.01 -0.12,-0.01 -0.18,-0.01"
         style="fill:#282828;fill-opacity:1;fill-rule:nonzero;stroke:none"
         transform="matrix(0.13333333,0,0,-0.13333333,0,600)" />
      <path
         id="path24"
         d="m 2032.49,2423.94 c -2.86,58.56 -6.99,121.54 -12.49,189.24 0,0 -79.56,3.89 -187.97,-4.57 l -256.45,-446.25 456.91,261.58"
         style="fill:#ffffff;fill-opacity:1;fill-rule:nonzero;stroke:none"
         transform="matrix(0.13333333,0,0,-0.13333333,0,600)" />
      <path
         id="path25"
         d="m 1575.56,2162.35 444.43,450.84 -194.54,-5.11 z"
         style="fill:#282828;fill-opacity:1;fill-rule:nonzero;stroke:none"
         transform="matrix(0.13333333,0,0,-0.13333333,0,600)" />
      <path
         id="path26"
         d="m 1673.78,2261.99 c 15.39,21.53 32.18,41.66 49.48,61.31 8.51,9.95 17.53,19.4 26.32,29.09 8.94,9.53 18.09,18.86 27.12,28.3 l 27.89,27.54 c 9.57,8.91 18.87,18.09 28.71,26.74 19.39,17.57 39.29,34.65 60.61,50.32 -11.18,-25.67 -25.81,-47.94 -41.5,-69.17 -15.82,-21.09 -32.98,-40.86 -51.36,-59.45 -18.35,-18.58 -37.88,-36.03 -58.75,-52.15 -21.01,-15.98 -43.05,-30.94 -68.52,-42.53"
         style="fill:#ffffff;fill-opacity:1;fill-rule:nonzero;stroke:none"
         transform="matrix(0.13333333,0,0,-0.13333333,0,600)" />
      <path
         id="path27"
         d="m 1691.95,2343.84 159.69,229.91 h 98.12 l -33.85,-66.14 78.29,79.43 15.28,15.49 -11.24,11.29 -172.79,-5.74 -133.5,-253.66 v -10.58"
         style="fill:#ffffff;fill-opacity:1;fill-rule:nonzero;stroke:none"
         transform="matrix(0.13333333,0,0,-0.13333333,0,600)" />
      <path
         id="path28"
         d="m 1839.45,2596.85 -230.62,-401.28 411.01,235.29 c -2.69,53.43 -6.45,110.67 -11.22,170.42 -24.51,0.68 -88.63,1.55 -169.17,-4.43 z m -263.87,-446.77 c -3.19,0 -6.34,1.23 -8.71,3.6 -3.92,3.93 -4.72,10 -1.96,14.82 l 256.46,446.24 c 2.03,3.52 5.66,5.81 9.7,6.12 107.95,8.43 188.72,4.64 189.53,4.6 6.16,-0.3 11.15,-5.13 11.65,-11.28 5.43,-66.79 9.64,-130.6 12.52,-189.64 0.22,-4.62 -2.17,-8.97 -6.18,-11.27 L 1581.68,2151.7 c -1.91,-1.09 -4.01,-1.62 -6.1,-1.62"
         style="fill:#282828;fill-opacity:1;fill-rule:nonzero;stroke:none"
         transform="matrix(0.13333333,0,0,-0.13333333,0,600)" />
      <path
         id="path29"
         d="m 1584.31,2153.72 -17.51,17.26 444.43,450.84 17.51,-17.25 -444.43,-450.85"
         style="fill:#282828;fill-opacity:1;fill-rule:nonzero;stroke:none"
         transform="matrix(0.13333333,0,0,-0.13333333,0,600)" />
      <path
         id="path30"
         d="m 1583.87,2181.12 399.56,299.32 -384.34,-318.62 z"
         style="fill:#282828;fill-opacity:1;fill-rule:nonzero;stroke:none"
         transform="matrix(0.13333333,0,0,-0.13333333,0,600)" />
      <path
         id="path31"
         d="m 2461.75,3412.24 c -0.15,-61.31 1.47,-129.16 5.16,-204.24 2.86,-58.56 6.99,-121.54 12.49,-189.24 0,0 79.56,-3.89 187.96,4.57 37.72,2.95 78.97,7.37 121.6,13.96 0,0 -71.05,14.21 -62.15,80.88 6.73,50.5 -73.16,117.66 -112.3,147.31 -12.49,9.49 -20.85,15.09 -20.85,15.09 -33.87,-8.11 -92.58,21.05 -118.74,76.51 v 0.04 c -7.66,16.18 -12.53,34.67 -13.17,55.12"
         style="fill:#282828;fill-opacity:1;fill-rule:nonzero;stroke:none"
         transform="matrix(0.13333333,0,0,-0.13333333,0,600)" />
      <path
         id="path32"
         d="m 2763.19,3039.91 c -25.97,0.96 -47.63,21.64 -47.63,21.64 l -34.61,-32.7 v 53.39 l 27.41,51.94 c 0,0 25.01,-72.14 54.83,-94.27"
         style="fill:#ffffff;fill-opacity:1;fill-rule:nonzero;stroke:none"
         transform="matrix(0.13333333,0,0,-0.13333333,0,600)" />
      <path
         id="path33"
         d="m 2466.37,3219.46 23.55,-61.56 115.6,61.56 8.99,46.02 c -12.49,9.49 -20.85,15.09 -20.85,15.09 -33.87,-8.11 -92.58,21.05 -118.74,76.51 -12.19,-46.42 44.89,-87.57 44.89,-87.57 l -53.44,-50.05"
         style="fill:#ffffff;fill-opacity:1;fill-rule:nonzero;stroke:none"
         transform="matrix(0.13333333,0,0,-0.13333333,0,600)" />
      <path
         id="path34"
         d="m 2490.77,3030.66 c 25.18,-0.7 92.08,-1.59 175.64,4.92 27.06,2.12 53.67,4.83 79.51,8.09 -19.96,15.01 -36.18,39.45 -31.29,76.13 4.13,30.95 -36.08,81.74 -107.54,135.88 -6.98,5.31 -12.67,9.38 -16.22,11.88 -35.26,-4.81 -85.81,19.22 -116.07,64.78 0.83,-39.55 2.29,-80.93 4.39,-123.74 2.71,-55.69 6.61,-115.5 11.58,-177.94 z m 37.64,-25.06 c -30.81,0 -49.22,0.86 -49.61,0.88 -6.16,0.3 -11.14,5.13 -11.65,11.28 -5.42,66.64 -9.63,130.45 -12.51,189.64 -3.6,73.04 -5.33,141.97 -5.18,204.87 0.01,6.71 5.4,12.16 12.11,12.26 6.85,0.22 12.26,-5.2 12.46,-11.9 0.56,-17.71 4.59,-34.61 12.01,-50.24 0.09,-0.21 0.19,-0.43 0.28,-0.65 24.67,-51.63 78.21,-75.51 104.48,-69.22 3.35,0.81 6.87,0.17 9.72,-1.74 0.35,-0.24 8.8,-5.92 21.42,-15.52 57.27,-43.37 124.07,-106.12 117.05,-158.71 -7.23,-54.25 49.97,-66.71 52.42,-67.21 5.82,-1.21 9.97,-6.41 9.82,-12.35 -0.16,-5.94 -4.52,-10.94 -10.39,-11.84 -38.99,-6.03 -80.21,-10.77 -122.51,-14.08 -56.68,-4.42 -105.87,-5.47 -139.92,-5.47"
         style="fill:#282828;fill-opacity:1;fill-rule:nonzero;stroke:none"
         transform="matrix(0.13333333,0,0,-0.13333333,0,600)" />
      <path
         id="path35"
         d="m 2464.3,3208 c 2.85,-58.56 6.98,-121.54 12.49,-189.24 0,0 79.55,-3.89 187.96,4.57 L 2921.2,3469.57 2464.3,3208"
         style="fill:#ffffff;fill-opacity:1;fill-rule:nonzero;stroke:none"
         transform="matrix(0.13333333,0,0,-0.13333333,0,600)" />
      <path
         id="path36"
         d="m 2823,3369.95 c -15.38,-21.53 -32.18,-41.66 -49.47,-61.31 -8.52,-9.95 -17.54,-19.4 -26.32,-29.09 -8.95,-9.54 -18.1,-18.86 -27.13,-28.3 l -27.89,-27.54 c -9.57,-8.92 -18.87,-18.09 -28.7,-26.74 -19.4,-17.58 -39.3,-34.65 -60.62,-50.32 11.17,25.67 25.81,47.93 41.5,69.17 15.82,21.09 32.98,40.86 51.35,59.44 18.36,18.59 37.88,36.04 58.75,52.16 21.02,15.98 43.06,30.94 68.53,42.53"
         style="fill:#ffffff;fill-opacity:1;fill-rule:nonzero;stroke:none"
         transform="matrix(0.13333333,0,0,-0.13333333,0,600)" />
      <path
         id="path37"
         d="m 2488.15,3030.66 c 24.53,-0.68 88.65,-1.55 169.18,4.43 l 230.62,401.28 -411.01,-235.29 c 2.7,-53.55 6.46,-110.79 11.21,-170.42 z m 37.64,-25.06 c -30.81,0 -49.22,0.86 -49.61,0.88 -6.16,0.3 -11.14,5.13 -11.65,11.28 -5.42,66.64 -9.63,130.45 -12.51,189.64 -0.22,4.62 2.16,8.97 6.16,11.27 l 456.92,261.57 c 4.81,2.76 10.89,1.94 14.8,-1.98 3.93,-3.93 4.73,-10 1.97,-14.81 L 2675.41,3017.2 c -2.03,-3.52 -5.65,-5.81 -9.71,-6.13 -56.67,-4.42 -105.86,-5.47 -139.91,-5.47"
         style="fill:#282828;fill-opacity:1;fill-rule:nonzero;stroke:none"
         transform="matrix(0.13333333,0,0,-0.13333333,0,600)" />
      <path
         id="path38"
         d="m 2485.55,3010.12 -17.51,17.25 444.43,450.85 17.51,-17.26 -444.43,-450.84"
         style="fill:#282828;fill-opacity:1;fill-rule:nonzero;stroke:none"
         transform="matrix(0.13333333,0,0,-0.13333333,0,600)" />
      <path
         id="path39"
         d="m 2915.3,3453.33 -289.95,-385.2 269.94,399.48 z"
         style="fill:#282828;fill-opacity:1;fill-rule:nonzero;stroke:none"
         transform="matrix(0.13333333,0,0,-0.13333333,0,600)" />
      <path
         id="path40"
         d="m 2476.8,3059.77 27.06,134.05 c 0,0 251.4,149.11 310.4,214.52 l 97.97,52.12 c 0,0 -317.16,-241.61 -386.82,-385.43 l -38.66,-46.18 -9.95,30.92"
         style="fill:#282828;fill-opacity:1;fill-rule:nonzero;stroke:none"
         transform="matrix(0.13333333,0,0,-0.13333333,0,600)" />
      <path
         id="path41"
         d="m 2037.65,3412.24 c 0.15,-61.31 -1.48,-129.16 -5.16,-204.24 -2.86,-58.56 -6.99,-121.54 -12.49,-189.24 0,0 -79.56,-3.89 -187.97,4.57 -37.71,2.95 -78.96,7.37 -121.59,13.96 0,0 71.04,14.21 62.15,80.88 -6.74,50.5 73.16,117.66 112.29,147.31 12.49,9.49 20.85,15.09 20.85,15.09 33.88,-8.11 92.59,21.05 118.74,76.51 v 0.04 c 7.67,16.18 12.54,34.67 13.18,55.12"
         style="fill:#282828;fill-opacity:1;fill-rule:nonzero;stroke:none"
         transform="matrix(0.13333333,0,0,-0.13333333,0,600)" />
      <path
         id="path42"
         d="m 1736.2,3039.91 c 25.98,0.96 47.64,21.64 47.64,21.64 l 34.61,-32.7 v 53.39 l -27.41,51.94 c 0,0 -25.01,-72.14 -54.84,-94.27"
         style="fill:#ffffff;fill-opacity:1;fill-rule:nonzero;stroke:none"
         transform="matrix(0.13333333,0,0,-0.13333333,0,600)" />
      <path
         id="path43"
         d="m 2033.03,3219.46 -23.56,-61.56 -115.59,61.56 -9,46.02 c 12.49,9.49 20.85,15.09 20.85,15.09 33.88,-8.11 92.59,21.05 118.74,76.51 12.2,-46.42 -44.89,-87.57 -44.89,-87.57 l 53.45,-50.05"
         style="fill:#ffffff;fill-opacity:1;fill-rule:nonzero;stroke:none"
         transform="matrix(0.13333333,0,0,-0.13333333,0,600)" />
      <path
         id="path44"
         d="m 1753.48,3043.67 c 25.85,-3.26 52.44,-5.97 79.51,-8.09 83.62,-6.52 150.47,-5.62 175.63,-4.92 4.99,62.56 8.88,122.38 11.59,177.94 2.1,42.78 3.57,84.15 4.38,123.75 -30.25,-45.56 -80.91,-69.6 -116.06,-64.79 -3.55,-2.49 -9.24,-6.57 -16.21,-11.87 -71.48,-54.15 -111.68,-104.94 -107.54,-135.9 4.89,-36.67 -11.34,-61.11 -31.3,-76.12 z m 217.51,-38.07 c -34.05,0 -83.24,1.05 -139.92,5.47 -42.3,3.31 -83.51,8.05 -122.51,14.08 -5.89,0.9 -10.27,5.91 -10.41,11.87 -0.13,5.96 4.04,11.16 9.88,12.33 2.4,0.49 59.61,12.95 52.38,67.2 -7.02,52.58 59.78,115.34 117.05,158.72 12.62,9.59 21.08,15.28 21.43,15.51 2.85,1.91 6.37,2.55 9.7,1.74 26.24,-6.27 79.83,17.58 104.5,69.24 0.08,0.21 0.17,0.42 0.27,0.63 7.41,15.62 11.45,32.53 12,50.24 0.21,6.7 5.79,12.08 12.47,11.9 6.71,-0.1 12.1,-5.55 12.11,-12.26 0.15,-63 -1.6,-131.93 -5.17,-204.87 -2.88,-59.05 -7.09,-122.85 -12.52,-189.64 -0.5,-6.15 -5.49,-10.98 -11.65,-11.28 -0.39,-0.02 -18.81,-0.88 -49.61,-0.88"
         style="fill:#282828;fill-opacity:1;fill-rule:nonzero;stroke:none"
         transform="matrix(0.13333333,0,0,-0.13333333,0,600)" />
      <path
         id="path45"
         d="m 2032.49,3208 c -2.86,-58.56 -6.99,-121.54 -12.49,-189.24 0,0 -79.56,-3.89 -187.97,4.57 L 1575.58,3469.57 2032.49,3208"
         style="fill:#ffffff;fill-opacity:1;fill-rule:nonzero;stroke:none"
         transform="matrix(0.13333333,0,0,-0.13333333,0,600)" />
      <path
         id="path46"
         d="m 1575.56,3469.59 444.43,-450.84 -194.54,5.11 z"
         style="fill:#282828;fill-opacity:1;fill-rule:nonzero;stroke:none"
         transform="matrix(0.13333333,0,0,-0.13333333,0,600)" />
      <path
         id="path47"
         d="m 1673.78,3369.95 c 21.3,-15.7 41.2,-32.78 60.59,-50.35 9.83,-8.66 19.15,-17.82 28.71,-26.74 9.41,-9.07 18.6,-18.35 27.91,-27.52 l 27.14,-28.28 c 8.77,-9.7 17.82,-19.13 26.33,-29.09 17.29,-19.64 34.08,-39.78 49.45,-61.32 -25.52,11.53 -47.57,26.48 -68.57,42.47 -20.87,16.12 -40.39,33.57 -58.71,52.21 -18.32,18.63 -35.49,38.39 -51.31,59.49 -15.67,21.24 -30.32,43.49 -41.54,69.13"
         style="fill:#ffffff;fill-opacity:1;fill-rule:nonzero;stroke:none"
         transform="matrix(0.13333333,0,0,-0.13333333,0,600)" />
      <path
         id="path48"
         d="m 1691.95,3288.1 159.69,-229.91 h 98.12 l -33.85,66.14 78.29,-79.43 15.28,-15.5 -11.24,-11.28 -172.79,5.74 -133.5,253.65 v 10.59"
         style="fill:#ffffff;fill-opacity:1;fill-rule:nonzero;stroke:none"
         transform="matrix(0.13333333,0,0,-0.13333333,0,600)" />
      <path
         id="path49"
         d="m 1839.45,3035.09 c 80.54,-5.98 144.67,-5.11 169.17,-4.43 4.77,59.75 8.53,116.99 11.22,170.42 l -411.01,235.29 z m 131.54,-29.49 c -34.05,0 -83.24,1.05 -139.92,5.47 -4.04,0.32 -7.67,2.61 -9.7,6.13 l -256.46,446.25 c -2.76,4.81 -1.96,10.88 1.96,14.81 3.93,3.92 9.99,4.74 14.81,1.98 l 456.91,-261.57 c 4.01,-2.3 6.4,-6.65 6.18,-11.27 -2.88,-59.05 -7.09,-122.85 -12.52,-189.64 -0.5,-6.15 -5.49,-10.98 -11.65,-11.28 -0.39,-0.02 -18.81,-0.88 -49.61,-0.88"
         style="fill:#282828;fill-opacity:1;fill-rule:nonzero;stroke:none"
         transform="matrix(0.13333333,0,0,-0.13333333,0,600)" />
      <path
         id="path50"
         d="m 2011.23,3010.12 -444.43,450.84 17.51,17.26 444.43,-450.85 -17.51,-17.25"
         style="fill:#282828;fill-opacity:1;fill-rule:nonzero;stroke:none"
         transform="matrix(0.13333333,0,0,-0.13333333,0,600)" />
      <path
         id="path51"
         d="m 1599.09,3470.12 384.34,-318.62 -399.56,299.31 z"
         style="fill:#282828;fill-opacity:1;fill-rule:nonzero;stroke:none"
         transform="matrix(0.13333333,0,0,-0.13333333,0,600)" />
      <path
         id="path52"
         d="m 3282.31,2638.45 c 0,0 1.93,-148.78 -109.68,-243.03 -36.54,82.69 -284.73,261.61 -700.3,200.05 0,0 23.06,-1190.93 32.7,-1396.79 9.64,-205.86 119.29,-454.008 192.39,-509.809 C 2660.89,569.59 2494.46,481.082 2454.04,473.371 2425.19,316.57 2250,184.801 2250,184.801 c 0,0 -175.18,131.769 -204.04,288.57 -40.42,7.711 -206.85,96.219 -243.38,215.5 8.75,6.688 18.05,16.07 27.58,27.879 70.31,86.68 156.3,300.7 164.81,481.93 9.64,205.86 32.7,1396.79 32.7,1396.79 -0.25,0.05 -0.55,0.1 -0.79,0.1 -415.07,61.22 -662.97,-117.51 -699.5,-200.15 -111.61,94.25 -109.69,243.03 -109.69,243.03 -138.51,34.61 -284.729,173.46 -284.729,173.46 57.719,74.1 190.469,150.06 289.539,176.07 1.92,38.45 30.78,172.18 87.57,221.25 92.14,-101.19 254.3,-149.32 400.37,-171.94 42.63,-6.59 83.88,-11.01 121.59,-13.96 108.41,-8.46 187.97,-4.57 187.97,-4.57 5.5,67.7 9.63,130.68 12.49,189.24 3.68,75.08 5.31,142.93 5.16,204.24 v 0.4 c -0.89,374.16 -67.02,505.73 -128.62,562.32 0,0 82.11,92.34 187.27,110.28 39.78,87.22 116.63,188.65 153.7,225.73 37.07,-37.08 113.93,-138.51 153.7,-225.73 105.17,-17.94 187.28,-110.28 187.28,-110.28 -61.61,-56.59 -127.74,-188.16 -128.63,-562.32 v -0.4 c -0.14,-61.31 1.48,-129.16 5.17,-204.24 2.85,-58.56 6.98,-121.54 12.49,-189.24 0,0 79.55,-3.89 187.96,4.57 37.71,2.95 78.96,7.37 121.59,13.96 146.07,22.62 308.23,70.75 400.37,171.94 56.79,-49.07 85.66,-182.8 87.57,-221.25 99.07,-26.01 231.83,-101.97 289.54,-176.07 0,0 -146.22,-138.85 -284.73,-173.46"
         style="fill:#ffffff;fill-opacity:1;fill-rule:nonzero;stroke:none"
         transform="matrix(0.13333333,0,0,-0.13333333,0,600)" />
      <path
         id="path53"
         d="m 2093.95,2657.48 -10.23,-350.62 -12.93,-341.86 -9,-318.65 c 0,0 0.89,-190.47 0,-239.84 -0.94,-49.41 -7.77,-209.16 -7.77,-209.16 0,0 -4.97,-96.31 -29.11,-188.6 -24.19,-92.238 -83.24,-213.578 -113.03,-250.359 -29.8,-36.782 -62.45,-57.481 -92.29,-67.012 l 10.57,25.371 c 70.31,86.68 156.3,300.7 164.81,481.93 9.64,205.86 32.7,1396.79 32.7,1396.79 -0.25,0.05 -0.55,0.1 -0.79,0.1 l 54.77,50.45 12.3,11.46"
         style="fill:#282828;fill-opacity:1;fill-rule:nonzero;stroke:none"
         transform="matrix(0.13333333,0,0,-0.13333333,0,600)" />
      <path
         id="path54"
         d="m 2611.63,710.18 c -186.15,191.211 -185.29,524.43 -184.6,792.17 0.05,15.97 0.09,31.7 0.09,47.15 0,268.54 -37.72,1103.59 -38.1,1111.99 -0.27,6.05 3.9,11.39 9.83,12.6 147.71,30.17 465.22,39.02 718.12,-119.18 l -13.03,-20.85 c -240.62,150.52 -541.67,145.71 -689.89,117.96 4.41,-98.31 37.65,-849.96 37.65,-1102.52 0,-15.47 -0.04,-31.22 -0.08,-47.21 -0.68,-263.28 -1.53,-590.938 177.62,-774.97 l -17.61,-17.14"
         style="fill:#282828;fill-opacity:1;fill-rule:nonzero;stroke:none"
         transform="matrix(0.13333333,0,0,-0.13333333,0,600)" />
      <path
         id="path55"
         d="m 1927.11,3973.26 c 0,0 48.06,-12.28 69.16,-24.6 21.12,-12.33 42.6,-105.99 51.01,-137.61 8.4,-31.61 37.92,-181.92 43.07,-269.41 5.15,-87.47 7.38,-401.68 -23.23,-512.79 l -42.78,46.18 c 0,0 13.41,175.23 13.32,240 -0.1,64.78 0.28,185.99 -9.02,296.29 -9.3,110.31 -24.73,187.84 -41.71,231.4 -16.97,43.55 -59.82,130.54 -59.82,130.54"
         style="fill:#282828;fill-opacity:1;fill-rule:nonzero;stroke:none"
         transform="matrix(0.13333333,0,0,-0.13333333,0,600)" />
      <path
         id="path56"
         d="m 2026.84,2583.28 c 0.01,0 0.03,0 0.04,0 -0.01,0 -0.03,0 -0.04,0 z M 1816.9,684.75 c 39.97,-111.051 197.56,-192.859 231.36,-199.309 4.98,-0.953 8.87,-4.859 9.79,-9.851 24.33,-132.231 158.76,-248.231 191.95,-275.121 33.17,26.91 167.64,143.031 191.95,275.121 0.92,4.992 4.81,8.898 9.79,9.851 33.81,6.45 191.41,88.25 231.37,199.321 -78.33,69.308 -181.16,316.918 -190.36,513.348 -9.53,203.67 -32.47,1385.22 -32.7,1397.12 -0.12,6.19 4.37,11.5 10.49,12.4 230.24,34.1 398.23,-6.56 498.64,-46.68 108.22,-43.24 179.02,-101.78 206.85,-146.01 94.58,89.69 94.01,221.97 93.99,223.35 -0.07,5.7 3.79,10.7 9.32,12.08 115.24,28.8 238.02,133.4 270.81,162.76 -56.3,65.31 -176.81,136.98 -275.77,162.96 -5.19,1.36 -8.89,5.92 -9.16,11.27 -1.67,33.5 -27.19,152.72 -74.91,204.38 -80.42,-82.03 -214.52,-138.05 -398.86,-166.59 -39,-6.03 -80.22,-10.77 -122.51,-14.08 -107.95,-8.41 -188.73,-4.63 -189.54,-4.59 -6.16,0.3 -11.15,5.13 -11.65,11.28 -5.42,66.64 -9.62,130.45 -12.51,189.64 -3.59,73.04 -5.33,141.97 -5.17,204.87 0.68,293.08 41.14,477.41 123.59,562.95 -22.78,22.66 -90.85,84.05 -172.03,97.91 -4.01,0.68 -7.42,3.31 -9.11,7.01 -35.53,77.9 -103.02,170.18 -142.52,213.05 -39.51,-42.87 -106.99,-135.15 -142.51,-213.05 -1.69,-3.7 -5.11,-6.33 -9.12,-7.01 -81.35,-13.89 -149.3,-75.24 -172.04,-97.9 82.45,-85.54 122.91,-269.86 123.61,-562.56 0.15,-63.4 -1.6,-132.32 -5.17,-205.27 -2.88,-59.05 -7.09,-122.85 -12.52,-189.64 -0.5,-6.15 -5.49,-10.98 -11.65,-11.28 -0.81,-0.04 -81.58,-3.83 -189.53,4.59 -42.3,3.31 -83.51,8.05 -122.51,14.08 -184.36,28.54 -318.45,84.55 -398.87,166.59 -47.72,-51.67 -73.24,-170.89 -74.91,-204.38 -0.27,-5.35 -3.97,-9.91 -9.15,-11.27 -98.97,-25.98 -219.48,-97.65 -275.775,-162.96 32.805,-29.37 155.665,-133.98 270.805,-162.76 5.53,-1.38 9.39,-6.38 9.32,-12.08 -0.02,-1.37 -0.31,-133.85 94,-223.35 27.81,44.19 98.54,102.69 206.63,145.91 100.22,40.08 267.87,80.73 497.55,46.96 0.64,-0.06 1.3,-0.16 1.99,-0.3 5.79,-1.19 9.92,-6.35 9.81,-12.28 -0.24,-11.9 -23.18,-1193.45 -32.71,-1397.12 -8.42,-179.4 -93.43,-397.739 -167.54,-489.11 -7.74,-9.578 -15.39,-17.699 -22.81,-24.25 z M 2250,172.512 c -2.6,0 -5.2,0.82 -7.39,2.468 -7.19,5.411 -173.77,132.239 -207.19,288.352 -56.99,16.828 -209.57,107.578 -244.59,221.93 -1.51,4.929 0.2,10.258 4.29,13.367 7.97,6.101 16.55,14.793 25.48,25.84 71.68,88.359 153.9,300.221 162.09,474.791 9.03,192.85 30.13,1265.31 32.48,1385.57 -396.16,55.06 -640.92,-113.78 -676.55,-194.39 -1.56,-3.54 -4.71,-6.13 -8.48,-7 -3.75,-0.88 -7.73,0.08 -10.69,2.58 -99.45,83.99 -112.25,207.42 -113.84,242.91 -137.11,38.4 -275.184,168.43 -281.118,174.06 -4.586,4.36 -5.121,11.48 -1.234,16.47 61.129,78.47 192.172,150.89 287.752,178.11 5.04,44.68 32.66,170.53 91.02,220.96 5.05,4.36 12.64,3.9 17.13,-1.03 75.4,-82.8 207.68,-139.35 393.16,-168.06 38.39,-5.93 78.98,-10.6 120.67,-13.86 83.55,-6.51 150.47,-5.62 175.63,-4.92 4.99,62.56 8.88,122.38 11.59,177.94 3.56,72.53 5.3,141.03 5.15,203.61 -0.7,296.31 -41.48,477.3 -124.65,553.7 -4.94,4.54 -5.33,12.2 -0.87,17.22 3.4,3.82 82.96,92.16 187.99,113.04 40.65,86.36 114.58,184.59 153.48,223.49 4.8,4.8 12.58,4.8 17.38,0 38.9,-38.89 112.83,-137.13 153.49,-223.49 105.03,-20.88 184.59,-109.22 187.99,-113.04 4.45,-5.02 4.07,-12.68 -0.87,-17.22 -83.19,-76.4 -123.95,-257.39 -124.65,-553.3 -0.16,-62.88 1.58,-131.38 5.14,-204.01 2.72,-55.69 6.62,-115.5 11.59,-177.94 25.17,-0.7 92.08,-1.59 175.64,4.92 41.68,3.26 82.28,7.93 120.67,13.86 185.47,28.71 317.75,85.26 393.15,168.06 4.48,4.93 12.08,5.39 17.13,1.03 58.35,-50.41 85.98,-176.28 91.03,-220.96 95.57,-27.22 226.62,-99.65 287.75,-178.11 3.88,-4.99 3.35,-12.11 -1.24,-16.47 -5.94,-5.63 -144.02,-135.66 -281.12,-174.06 -1.59,-35.49 -14.39,-158.92 -113.83,-242.91 -2.96,-2.5 -6.92,-3.45 -10.7,-2.58 -3.77,0.87 -6.91,3.46 -8.48,7 -35.63,80.67 -280.38,249.45 -676.54,194.41 2.35,-120.15 23.44,-1192.73 32.46,-1385.59 9.58,-204.631 120.37,-449.319 187.58,-500.631 4.08,-3.109 5.8,-8.438 4.3,-13.367 -35.03,-114.352 -187.61,-205.102 -244.6,-221.93 -33.42,-156.113 -200,-282.941 -207.19,-288.352 -2.19,-1.648 -4.79,-2.468 -7.39,-2.468"
         style="fill:#282828;fill-opacity:1;fill-rule:nonzero;stroke:none"
         transform="matrix(0.13333333,0,0,-0.13333333,0,600)" />
      <path
         id="path57"
         d="m 2463.94,2586.5 -452.35,423.27 16.79,17.95 452.35,-423.27 -16.79,-17.95"
         style="fill:#282828;fill-opacity:1;fill-rule:nonzero;stroke:none"
         transform="matrix(0.13333333,0,0,-0.13333333,0,600)" />
      <path
         id="path58"
         d="m 2036.06,2586.5 -16.79,17.95 452.34,423.28 16.8,-17.94 -452.35,-423.29"
         style="fill:#282828;fill-opacity:1;fill-rule:nonzero;stroke:none"
         transform="matrix(0.13333333,0,0,-0.13333333,0,600)" />
      <path
         id="path59"
         d="M 2445.45,464.582 C 2387.01,521.719 2285.1,735.512 2250,832.809 2214.9,735.512 2112.98,521.719 2054.55,464.582 l -17.19,17.566 c 69.94,68.411 200.11,364.473 200.35,395.262 0,6.789 5.5,12.289 12.29,12.289 6.74,0 12.21,-5.418 12.29,-12.129 v -0.011 c 0,-0.02 0,-0.047 0,-0.079 v 0 c 0,-0.011 0,-0.019 0,-0.031 0,-0.008 0,-0.008 0,-0.008 0,-0.011 0,-0.019 0,-0.043 0.24,-30.777 130.41,-326.839 200.35,-395.25 l -17.19,-17.566"
         style="fill:#282828;fill-opacity:1;fill-rule:nonzero;stroke:none"
         transform="matrix(0.13333333,0,0,-0.13333333,0,600)" />
      <path
         id="path60"
         d="m 2696.84,676.59 c -56.45,2.719 -137.12,60.781 -221.33,159.32 -83.61,97.828 -163.1,225.84 -225.51,362.77 -62.41,-136.93 -141.9,-264.942 -225.51,-362.77 -84.21,-98.539 -164.88,-156.601 -221.32,-159.32 l -1.18,24.551 c 98.58,4.75 302.19,224.648 436.75,532.629 1.95,4.47 6.37,7.36 11.26,7.36 4.89,0 9.31,-2.89 11.26,-7.36 134.56,-307.981 338.17,-527.879 436.76,-532.629 l -1.18,-24.551"
         style="fill:#282828;fill-opacity:1;fill-rule:nonzero;stroke:none"
         transform="matrix(0.13333333,0,0,-0.13333333,0,600)" />
      <path
         id="path61"
         d="m 2250,323.531 c -3.72,0 -7.25,1.688 -9.58,4.59 l -157.09,195.231 c -22.91,10.609 -171.29,82.66 -215.16,190.777 l 22.78,9.25 c 42.89,-105.699 203.51,-178.098 205.13,-178.82 1.79,-0.789 3.35,-2 4.58,-3.52 L 2250,355.43 2399.34,541.039 c 1.22,1.52 2.8,2.731 4.59,3.52 1.61,0.722 162.29,73.25 205.11,178.82 l 22.79,-9.25 C 2587.96,606.012 2439.59,533.961 2416.66,523.352 L 2259.58,328.121 c -2.33,-2.902 -5.86,-4.59 -9.58,-4.59"
         style="fill:#282828;fill-opacity:1;fill-rule:nonzero;stroke:none"
         transform="matrix(0.13333333,0,0,-0.13333333,0,600)" />
      <path
         id="path62"
         d="m 2262.29,1228.85 h -24.58 v 2436.98 h 24.58 V 1228.85"
         style="fill:#282828;fill-opacity:1;fill-rule:nonzero;stroke:none"
         transform="matrix(0.13333333,0,0,-0.13333333,0,600)" />
      <path
         id="path63"
         d="m 1292.33,2938.69 -24.2,4.28 c 0.89,5.06 21.78,121.33 60.29,184.25 l -29.83,77.6 22.95,8.82 32.05,-83.38 c 1.42,-3.72 0.97,-7.89 -1.23,-11.21 -37.87,-57.11 -59.81,-179.14 -60.03,-180.36"
         style="fill:#282828;fill-opacity:1;fill-rule:nonzero;stroke:none"
         transform="matrix(0.13333333,0,0,-0.13333333,0,600)" />
      <path
         id="path64"
         d="M 3567.04,2799.61 H 932.953 v 24.59 H 3567.04 v -24.59"
         style="fill:#282828;fill-opacity:1;fill-rule:nonzero;stroke:none"
         transform="matrix(0.13333333,0,0,-0.13333333,0,600)" />
      <path
         id="path65"
         d="m 1067.39,2809.2 c 37.52,-40.44 147.83,-84.87 197.66,-102.26 47.58,42.92 109.67,87.01 155.82,107.06 -65.06,35.26 -124.11,92.42 -143.25,111.84 -30.99,-15.35 -144.62,-72.49 -210.23,-116.64 z m 249.05,-419.4 c -12.48,24.34 7.65,75.47 16.68,95.92 -33.26,48.7 -60.78,142.4 -71.91,183.91 -13.86,-13.78 -25.45,-26.89 -33.49,-38.27 l -20.08,14.18 c 8.99,12.73 21.93,27.3 37.35,42.51 -48.41,17.7 -173.65,67.29 -205.66,117.22 -3.53,5.53 -2.12,12.86 3.23,16.66 74.36,52.87 225.88,126.83 232.28,129.95 4.86,2.35 10.66,1.28 14.35,-2.64 0.85,-0.9 85.87,-90.9 168.98,-126.01 4.98,-2.11 8.01,-7.23 7.44,-12.62 -0.57,-5.38 -4.6,-9.76 -9.92,-10.78 -41.39,-7.89 -118.41,-60.59 -174.1,-110.92 7.63,-29.7 39.16,-146.35 75.47,-194.4 2.75,-3.65 3.25,-8.52 1.31,-12.65 -14.17,-30.07 -25.86,-69.52 -20.05,-80.84 l -21.88,-11.22"
         style="fill:#282828;fill-opacity:1;fill-rule:nonzero;stroke:none"
         transform="matrix(0.13333333,0,0,-0.13333333,0,600)" />
      <path
         id="path66"
         d="m 1357.39,2480.15 -20.29,13.9 c 131.05,191.25 299.03,292.17 354.49,321.95 -67.65,47.74 -282.23,202.83 -359.2,302.33 l 19.45,15.04 c 83.32,-107.73 344.04,-290.49 371.67,-309.71 l 2.34,-1.62 c 0.01,-0.01 0.01,-0.01 0.01,-0.01 l 0.03,-0.02 c 5.58,-3.87 6.97,-11.52 3.1,-17.09 -3.23,-4.69 -9.15,-6.42 -14.26,-4.58 -34.64,-17.41 -217.38,-115.91 -357.34,-320.19"
         style="fill:#282828;fill-opacity:1;fill-rule:nonzero;stroke:none"
         transform="matrix(0.13333333,0,0,-0.13333333,0,600)" />
      <path
         id="path67"
         d="m 1888.74,710.57 -18.34,16.371 c 181.22,202.969 179.64,497.549 178.25,757.449 -0.12,22.04 -0.24,43.76 -0.24,65.11 0,252.56 33.25,1004.21 37.65,1102.52 -148.18,27.74 -449.26,32.56 -689.87,-117.96 l -13.05,20.85 c 252.91,158.19 570.4,149.35 718.13,119.18 5.93,-1.21 10.09,-6.55 9.82,-12.6 -0.38,-8.4 -38.09,-843.46 -38.09,-1111.99 0,-21.3 0.12,-42.99 0.23,-64.98 1.42,-264.32 3.02,-563.93 -184.49,-773.95"
         style="fill:#282828;fill-opacity:1;fill-rule:nonzero;stroke:none"
         transform="matrix(0.13333333,0,0,-0.13333333,0,600)" />
      <path
         id="path68"
         d="m 2250.12,3894.67 c -5.06,0 -9.72,3.1 -11.56,7.81 -25.72,65.62 -149.03,172.38 -150.28,173.45 l 16.05,18.62 c 4.72,-4.06 105.02,-90.9 145.73,-160.19 40.71,69.29 141,156.13 145.73,160.19 l 16.05,-18.62 c -1.25,-1.07 -124.56,-107.83 -150.29,-173.45 -1.84,-4.71 -6.38,-7.81 -11.43,-7.81"
         style="fill:#282828;fill-opacity:1;fill-rule:nonzero;stroke:none"
         transform="matrix(0.13333333,0,0,-0.13333333,0,600)" />
      <path
         id="path69"
         d="m 2250.12,3653.54 c -4.77,0 -9.23,2.76 -11.25,7.08 -49.84,106.36 -202.8,298.26 -330.21,302.06 l 0.73,24.57 c 134.65,-4.02 281.87,-185.09 340.67,-294.29 58.8,109.2 206.02,290.27 340.67,294.29 l 0.73,-24.57 c -127.42,-3.8 -280.38,-195.7 -330.22,-302.06 -2.02,-4.32 -6.36,-7.08 -11.12,-7.08"
         style="fill:#282828;fill-opacity:1;fill-rule:nonzero;stroke:none"
         transform="matrix(0.13333333,0,0,-0.13333333,0,600)" />
      <path
         id="path70"
         d="m 2563.19,2933.37 c -87.05,0 -148.95,5.55 -155.76,6.19 -6.1,0.57 -10.86,5.57 -11.13,11.7 -30.37,699.81 35.94,858.15 89.22,985.38 1.47,3.54 2.94,7.05 4.4,10.55 -43.87,60.77 -129.29,89.08 -130.16,89.37 -2.57,0.84 -4.8,2.49 -6.33,4.71 L 2250.06,4191 2146.69,4041.27 c -1.53,-2.22 -3.76,-3.87 -6.32,-4.71 -0.89,-0.29 -86.3,-28.6 -130.17,-89.37 1.46,-3.5 2.93,-7.02 4.4,-10.55 53.29,-127.24 119.59,-285.58 89.21,-985.38 -0.27,-6.13 -5.02,-11.13 -11.13,-11.7 -18.98,-1.78 -467.59,-41.89 -693.08,107.57 l 13.58,20.5 c 199.6,-132.31 596.46,-109.64 666.54,-104.45 28.99,685.05 -35.73,839.65 -87.79,963.96 -2.37,5.65 -4.71,11.24 -7.02,16.82 -1.55,3.77 -1.14,8.07 1.11,11.47 42.48,64.29 123.5,96.26 142.73,103.13 l 111.13,160.97 c 2.3,3.33 6.08,5.31 10.12,5.31 4.04,0 7.93,-1.98 10.23,-5.31 l 111.14,-160.97 c 19.24,-6.87 100.25,-38.84 142.72,-103.13 2.26,-3.4 2.67,-7.7 1.12,-11.47 -2.32,-5.58 -4.65,-11.17 -7.03,-16.81 -52.05,-124.32 -116.76,-278.91 -87.78,-963.97 70.09,-5.18 467.02,-27.81 666.53,104.45 l 13.58,-20.5 c -144.71,-95.92 -381.35,-113.76 -537.32,-113.76"
         style="fill:#282828;fill-opacity:1;fill-rule:nonzero;stroke:none"
         transform="matrix(0.13333333,0,0,-0.13333333,0,600)" />
      <path
         id="path71"
         d="m 3207.78,2938.69 c -0.21,1.22 -22.15,123.25 -60.03,180.36 -2.19,3.32 -2.65,7.49 -1.23,11.21 l 32.05,83.38 22.95,-8.82 -29.82,-77.6 c 38.51,-62.92 59.39,-179.19 60.29,-184.25 l -24.21,-4.28"
         style="fill:#282828;fill-opacity:1;fill-rule:nonzero;stroke:none"
         transform="matrix(0.13333333,0,0,-0.13333333,0,600)" />
      <path
         id="path72"
         d="m 3079.25,2814 c 47.25,-20.54 111.23,-66.27 159.22,-110.15 49.07,18.37 157.12,64.64 194.3,105.32 -65.61,44.17 -179.28,101.31 -210.28,116.67 -19.13,-19.42 -78.17,-76.58 -143.24,-111.84 z m 104.43,-424.2 -21.87,11.22 c 5.8,11.32 -5.9,50.77 -20.06,80.84 -1.95,4.13 -1.45,9 1.32,12.65 36.29,48.03 70.35,161.85 78.8,191.36 -55.91,51.23 -135.21,105.91 -177.45,113.96 -5.32,1.02 -9.34,5.4 -9.92,10.78 -0.56,5.39 2.46,10.51 7.45,12.62 83.11,35.11 168.12,125.1 168.97,126.01 3.69,3.92 9.51,4.99 14.35,2.64 6.41,-3.12 157.92,-77.08 232.29,-129.95 5.35,-3.8 6.77,-11.13 3.23,-16.66 -32.04,-49.96 -155.49,-101.79 -202.66,-120.2 14.1,-14.12 25.94,-27.63 34.34,-39.53 l -20.08,-14.18 c -7.46,10.55 -17.96,22.6 -30.51,35.28 -12.01,-40.55 -41.49,-132.43 -74.87,-180.93 9.03,-20.47 29.13,-71.58 16.67,-95.91"
         style="fill:#282828;fill-opacity:1;fill-rule:nonzero;stroke:none"
         transform="matrix(0.13333333,0,0,-0.13333333,0,600)" />
      <path
         id="path73"
         d="m 3142.72,2480.15 c -139.96,204.28 -322.69,302.78 -357.33,320.19 -5.12,-1.84 -11.03,-0.11 -14.27,4.58 -3.86,5.57 -2.47,13.22 3.1,17.09 l 2.44,1.69 c 27.87,19.4 288.35,202 371.62,309.67 l 19.44,-15.04 c -76.96,-99.5 -291.54,-254.59 -359.19,-302.33 55.45,-29.78 223.43,-130.7 354.48,-321.95 l -20.29,-13.9"
         style="fill:#282828;fill-opacity:1;fill-rule:nonzero;stroke:none"
         transform="matrix(0.13333333,0,0,-0.13333333,0,600)" />
      <path
         id="path74"
         d="m 2411.8,3566.85 58.36,42.5 -5.25,-82.06 -58.88,-44.13 5.77,83.69"
         style="fill:#282828;fill-opacity:1;fill-rule:nonzero;stroke:none"
         transform="matrix(0.13333333,0,0,-0.13333333,0,600)" />
      <path
         id="path75"
         d="m 2404.34,3447.7 c 0.16,3.97 59.3,45.62 59.3,45.62 l -0.9,-38.49 -59.71,-42.59 1.31,35.46"
         style="fill:#282828;fill-opacity:1;fill-rule:nonzero;stroke:none"
         transform="matrix(0.13333333,0,0,-0.13333333,0,600)" />
      <path
         id="path76"
         d="m 2402.04,3375.31 60.33,42.97 v -53.23 l -61.2,-44.26 0.87,54.52"
         style="fill:#282828;fill-opacity:1;fill-rule:nonzero;stroke:none"
         transform="matrix(0.13333333,0,0,-0.13333333,0,600)" />
      <path
         id="path77"
         d="m 2462.37,3251.54 -56.34,-41.36 v -63.53 l 62.3,45.3 -5.96,59.59"
         style="fill:#282828;fill-opacity:1;fill-rule:nonzero;stroke:none"
         transform="matrix(0.13333333,0,0,-0.13333333,0,600)" />
      <path
         id="path78"
         d="m 2403.43,3096.66 67.06,56.45 v -38.16 l -64.46,-65.42 -2.6,47.13"
         style="fill:#282828;fill-opacity:1;fill-rule:nonzero;stroke:none"
         transform="matrix(0.13333333,0,0,-0.13333333,0,600)" />
      <path
         id="path79"
         d="m 1341.23,3108.5 c 3.56,-10.25 10.9,-21.44 18.6,-31.83 7.8,-10.5 16.42,-20.68 25.34,-30.62 17.92,-19.87 37.07,-38.9 56.74,-57.38 19.71,-18.47 39.96,-36.44 60.69,-53.85 20.75,-17.38 41.88,-34.36 63.98,-50.11 -23.23,14.04 -45.66,29.44 -67.75,45.26 -22.09,15.86 -43.74,32.34 -64.98,49.42 -21.22,17.12 -41.99,34.84 -61.91,53.82 -9.94,9.52 -19.65,19.36 -28.87,29.97 -9.13,10.77 -18.14,21.64 -24.82,36.6 l 22.98,8.72"
         style="fill:#282828;fill-opacity:1;fill-rule:nonzero;stroke:none"
         transform="matrix(0.13333333,0,0,-0.13333333,0,600)" />
      <path
         id="path80"
         d="m 1828.55,2863.87 c 29.75,2.39 59.49,4.05 89.24,5.53 14.87,0.84 29.74,1.28 44.62,1.93 14.87,0.64 29.74,1.18 44.62,1.56 l 44.62,1.29 44.61,0.81 c 29.75,0.66 59.5,0.81 89.24,0.95 l -12.07,-12.07 c -0.39,35.92 0,71.83 0.19,107.74 0.01,17.96 0.38,35.91 0.7,53.87 0.36,17.96 0.54,35.92 1.05,53.87 l 1.57,53.87 2.13,53.87 c 1.7,35.92 3.46,71.83 6.43,107.74 2.97,-35.91 4.73,-71.82 6.43,-107.74 l 2.13,-53.87 1.57,-53.87 c 0.51,-17.95 0.69,-35.91 1.05,-53.87 0.32,-17.96 0.69,-35.91 0.71,-53.87 0.18,-35.91 0.57,-71.82 0.18,-107.74 v -0.19 c -0.07,-6.6 -5.47,-11.91 -12.07,-11.88 -29.74,0.14 -59.49,0.29 -89.24,0.95 l -44.61,0.81 -44.62,1.29 c -14.88,0.37 -29.75,0.92 -44.62,1.56 -14.88,0.65 -29.75,1.09 -44.62,1.93 -29.75,1.48 -59.49,3.13 -89.24,5.53"
         style="fill:#282828;fill-opacity:1;fill-rule:nonzero;stroke:none"
         transform="matrix(0.13333333,0,0,-0.13333333,0,600)" />
      <path
         id="path81"
         d="m 1242.61,2952.69 c 0.1,1.03 0.23,2.05 0.4,3.06 0.1,0.6 0.17,0.91 0.22,1.1 l 0.18,0.75 0.73,3.02 1.49,5.83 3.14,11.51 c 2.14,7.64 4.37,15.24 6.7,22.81 4.64,15.12 9.61,30.13 15.08,44.97 5.48,14.83 11.24,29.54 17.92,43.86 6.66,14.3 13.89,28.38 22.7,41.38 -6.6,-14.28 -11.38,-29.15 -15.57,-44.12 -4.2,-14.97 -7.45,-30.2 -10.39,-45.44 -2.93,-15.24 -5.36,-30.59 -7.43,-45.95 -1.05,-7.67 -1.99,-15.36 -2.84,-23.03 l -1.18,-11.47 -0.49,-5.67 -0.18,-2.7 -0.05,-0.68 -0.03,-0.33 c 0.01,-0.03 0.05,0.11 0.07,0.17 0.08,0.3 0.12,0.62 0.09,0.93 h -30.56"
         style="fill:#282828;fill-opacity:1;fill-rule:nonzero;stroke:none"
         transform="matrix(0.13333333,0,0,-0.13333333,0,600)" />
      <path
         id="path82"
         d="m 1221.02,2954.61 c 0.1,1.03 0.23,2.05 0.4,3.07 0.1,0.59 0.17,0.89 0.23,1.09 l 0.18,0.76 0.72,3.01 1.5,5.83 3.13,11.52 c 2.15,7.63 4.37,15.23 6.7,22.8 4.64,15.13 9.61,30.14 15.08,44.97 5.48,14.83 11.24,29.55 17.92,43.86 6.66,14.31 13.9,28.39 22.7,41.38 -6.6,-14.28 -11.38,-29.15 -15.57,-44.12 -4.2,-14.96 -7.44,-30.2 -10.39,-45.44 -2.93,-15.23 -5.35,-30.58 -7.43,-45.94 -1.05,-7.68 -1.99,-15.37 -2.84,-23.04 l -1.17,-11.47 -0.5,-5.67 -0.19,-2.7 -0.04,-0.67 -0.02,-0.34 c 0.01,-0.02 0.04,0.12 0.06,0.17 0.08,0.3 0.12,0.62 0.1,0.93 h -30.57"
         style="fill:#282828;fill-opacity:1;fill-rule:nonzero;stroke:none"
         transform="matrix(0.13333333,0,0,-0.13333333,0,600)" />
      <path
         id="path83"
         d="m 1225.14,3010.76 57.9,-45.88 c 0,0 0.78,-22.09 -19.39,-32.25 -20.17,-10.17 -116.39,-61.15 -116.39,-61.15 l -51.24,-29.58 c 0,0 -35.6,-29.99 -88.99,-29.99 -53.385,0 -74.069,2.9 -74.069,2.9 0,0 71.359,77.7 136.439,107.39 65.09,29.69 142.63,62.88 142.63,62.88 0,0 15.73,11.44 13.11,25.68"
         style="fill:#282828;fill-opacity:1;fill-rule:nonzero;stroke:none"
         transform="matrix(0.13333333,0,0,-0.13333333,0,600)" />
      <path
         id="path84"
         d="m 1087.34,2863.65 252.53,-21.91 -253.46,-2.66 z"
         style="fill:#282828;fill-opacity:1;fill-rule:nonzero;stroke:none"
         transform="matrix(0.13333333,0,0,-0.13333333,0,600)" />
      <path
         id="path85"
         d="m 1132.24,2888.34 187.19,-19.42 -188.13,-5.15 z"
         style="fill:#282828;fill-opacity:1;fill-rule:nonzero;stroke:none"
         transform="matrix(0.13333333,0,0,-0.13333333,0,600)" />
      <path
         id="path86"
         d="m 1177.13,2913.03 121.86,-16.94 -122.79,-7.63 z"
         style="fill:#282828;fill-opacity:1;fill-rule:nonzero;stroke:none"
         transform="matrix(0.13333333,0,0,-0.13333333,0,600)" />
      <path
         id="path87"
         d="m 1317.62,2419.13 c -10.12,12.66 -18.34,26.16 -25.54,39.95 -7.25,13.78 -13.15,28.02 -18.48,42.37 -5.29,14.36 -9.86,28.9 -13.72,43.6 -1.87,7.37 -3.66,14.74 -5.15,22.18 -1.46,7.42 -2.93,14.92 -3.2,22.48 1.29,-7.43 3.73,-14.56 6.16,-21.67 2.46,-7.1 5.21,-14.09 8.02,-21.04 5.73,-13.86 12.13,-27.41 19.11,-40.54 7.03,-13.12 14.52,-25.94 23.04,-37.85 8.45,-11.92 17.66,-23.14 27.81,-32.79 l -18.05,-16.69"
         style="fill:#282828;fill-opacity:1;fill-rule:nonzero;stroke:none"
         transform="matrix(0.13333333,0,0,-0.13333333,0,600)" />
      <path
         id="path88"
         d="m 1472.3,3017.87 c 115.44,-83.78 337.97,-106.86 398.26,-109.43 -139.81,-7.05 -295,13.47 -295,13.47 0,0 -132.76,75.83 -103.26,95.96"
         style="fill:#282828;fill-opacity:1;fill-rule:nonzero;stroke:none"
         transform="matrix(0.13333333,0,0,-0.13333333,0,600)" />
      <path
         id="path89"
         d="m 1245.5,2665.75 c -18.34,4.01 -34.54,10.69 -50.36,17.95 -15.74,7.36 -30.91,15.5 -45.76,24.08 -14.86,8.57 -29.37,17.65 -43.53,27.2 -14.08,9.63 -28.24,19.32 -40.78,30.87 13.79,-9.93 28.89,-17.77 43.9,-25.58 15.08,-7.7 30.41,-14.89 45.92,-21.51 15.51,-6.61 31.19,-12.72 47.01,-17.91 15.76,-5.1 31.94,-9.38 47.18,-10.78 l -3.58,-24.32"
         style="fill:#282828;fill-opacity:1;fill-rule:nonzero;stroke:none"
         transform="matrix(0.13333333,0,0,-0.13333333,0,600)" />
      <path
         id="path90"
         d="m 1224.12,2648.74 c -18.62,4.07 -34.87,11.08 -50.73,18.64 -15.75,7.7 -30.89,16.2 -45.7,25.13 -14.8,8.94 -29.24,18.38 -43.34,28.28 -14.02,9.96 -28.07,20.01 -40.66,31.71 13.86,-10.09 28.89,-18.32 43.88,-26.48 15.05,-8.08 30.35,-15.64 45.85,-22.63 15.5,-6.98 31.18,-13.46 47.02,-18.97 15.78,-5.39 32.03,-9.95 47.27,-11.36 l -3.59,-24.32"
         style="fill:#282828;fill-opacity:1;fill-rule:nonzero;stroke:none"
         transform="matrix(0.13333333,0,0,-0.13333333,0,600)" />
      <path
         id="path91"
         d="m 1340.78,3194.79 c 8.15,-14.36 20.58,-27.8 34.2,-39.94 13.6,-12.28 28.66,-23.45 44.15,-34.06 31.13,-21.12 64.81,-39.13 99.62,-54.57 34.91,-15.25 70.8,-28.72 107.75,-38.77 36.93,-10.04 74.73,-17.56 113.23,-20.25 -19.29,-0.47 -38.64,0.51 -57.9,2.44 -19.27,1.92 -38.47,4.82 -57.49,8.65 -38.06,7.66 -75.6,18.27 -112.1,31.95 -36.51,13.69 -72.14,30.07 -106.07,50.27 -16.9,10.2 -33.38,21.4 -48.53,34.8 -7.53,6.75 -14.8,13.91 -21.56,21.82 -6.53,8.1 -12.78,16.75 -17.38,26.85 l 22.08,10.81"
         style="fill:#282828;fill-opacity:1;fill-rule:nonzero;stroke:none"
         transform="matrix(0.13333333,0,0,-0.13333333,0,600)" />
      <path
         id="path92"
         d="m 1340.78,3168.32 c 8,-14.13 19.8,-27.38 32.92,-39.37 13.05,-12.13 27.55,-23.18 42.53,-33.63 30.07,-20.84 62.83,-38.45 96.74,-53.42 34.02,-14.75 69.11,-27.52 105.22,-36.87 36.11,-9.29 73.07,-15.89 110.64,-17.89 -37.58,-1.5 -75.45,1.92 -112.67,8.7 -37.2,6.95 -73.97,16.86 -109.65,30.07 -35.66,13.23 -70.44,29.24 -103.42,49.24 -16.43,10.07 -32.4,21.22 -47.01,34.51 -7.29,6.64 -14.22,13.83 -20.74,21.58 -6.25,7.99 -12.21,16.5 -16.64,26.26 l 22.08,10.82"
         style="fill:#282828;fill-opacity:1;fill-rule:nonzero;stroke:none"
         transform="matrix(0.13333333,0,0,-0.13333333,0,600)" />
      <path
         id="path93"
         d="m 2387.77,4079.5 c 13.42,-2.8 26.26,-7.88 38.2,-14.46 12.05,-6.38 23.58,-13.55 34.57,-21.38 11.08,-7.68 21.41,-16.34 31.33,-25.28 9.88,-8.98 19.17,-18.61 27.38,-29 -10.61,7.9 -21.72,14.86 -32.94,21.47 -11.2,6.64 -22.8,12.47 -34.46,17.89 -11.68,5.36 -23.49,10.29 -35.54,14.31 -11.96,4.29 -23.99,7.72 -35.57,12.89 l 7.03,23.56"
         style="fill:#282828;fill-opacity:1;fill-rule:nonzero;stroke:none"
         transform="matrix(0.13333333,0,0,-0.13333333,0,600)" />
      <path
         id="path94"
         d="m 2483.45,3968.8 c -9.91,-4.75 -20.48,-10.93 -30.47,-17.08 -10.01,-6.36 -19.92,-12.97 -29.52,-20.07 -19.22,-14.14 -37.8,-29.4 -55.03,-46.13 -17.25,-16.7 -33.87,-34.24 -48.81,-53.22 -7.8,-9.25 -14.71,-19.16 -21.84,-28.96 -3.68,-4.83 -6.79,-10.03 -10.11,-15.1 l -9.88,-15.31 8.55,16.09 c 2.89,5.36 5.58,10.84 8.86,15.97 6.29,10.41 12.42,20.99 19.48,30.96 13.45,20.41 28.75,39.59 44.89,58.09 16.13,18.53 33.79,35.76 52.38,52.02 9.29,8.16 18.98,15.88 28.87,23.4 10.11,7.43 19.95,14.47 31.42,21.22 l 11.21,-21.88"
         style="fill:#282828;fill-opacity:1;fill-rule:nonzero;stroke:none"
         transform="matrix(0.13333333,0,0,-0.13333333,0,600)" />
      <path
         id="path95"
         d="m 2262.41,4212.55 -12.29,-252.04 -12.3,252.04 z"
         style="fill:#282828;fill-opacity:1;fill-rule:nonzero;stroke:none"
         transform="matrix(0.13333333,0,0,-0.13333333,0,600)" />
      <path
         id="path96"
         d="m 2281.43,4185 -12.29,-204.2 -12.29,204.2 z"
         style="fill:#282828;fill-opacity:1;fill-rule:nonzero;stroke:none"
         transform="matrix(0.13333333,0,0,-0.13333333,0,600)" />
      <path
         id="path97"
         d="m 2300.45,4157.45 -12.29,-156.37 -12.29,156.37 z"
         style="fill:#282828;fill-opacity:1;fill-rule:nonzero;stroke:none"
         transform="matrix(0.13333333,0,0,-0.13333333,0,600)" />
      <path
         id="path98"
         d="m 2319.47,4129.89 -12.28,-108.53 -12.3,108.53 z"
         style="fill:#282828;fill-opacity:1;fill-rule:nonzero;stroke:none"
         transform="matrix(0.13333333,0,0,-0.13333333,0,600)" />
      <path
         id="path99"
         d="m 2338.5,4102.34 -12.3,-60.7 -12.28,60.7 z"
         style="fill:#282828;fill-opacity:1;fill-rule:nonzero;stroke:none"
         transform="matrix(0.13333333,0,0,-0.13333333,0,600)" />
      <path
         id="path100"
         d="m 2100.09,4043.69 c 5.11,-2.94 10.81,-5.76 14.81,-9.11 l 6.44,-4.88 5.71,-5.12 c 3.88,-3.37 7.28,-6.92 10.65,-10.47 3.49,-3.5 6.57,-7.16 9.71,-10.79 12.42,-14.57 23.35,-29.71 33.63,-45.14 10.26,-15.44 19.73,-31.25 28.57,-47.36 8.8,-16.1 17.07,-32.5 23.93,-49.39 -10.11,15.15 -21.38,29.34 -33.05,43.12 -11.7,13.75 -23.88,27.04 -36.59,39.63 -12.69,12.58 -25.85,24.61 -39.49,35.21 -3.42,2.63 -6.8,5.31 -10.31,7.59 -3.46,2.41 -6.9,4.79 -10.39,6.7 l -5.17,3.02 -5.06,2.35 -2.49,1.18 c -0.83,0.38 -1.57,0.49 -2.34,0.75 l -4.48,1.42 15.92,41.29"
         style="fill:#282828;fill-opacity:1;fill-rule:nonzero;stroke:none"
         transform="matrix(0.13333333,0,0,-0.13333333,0,600)" />
      <path
         id="path101"
         d="m 2068.64,4023.36 c 1,-0.57 7.66,-4.38 8.68,-4.95 0.26,-0.14 1.89,-1.11 2.15,-1.26 0.23,-0.13 1.65,-1.14 1.88,-1.29 0.46,-0.27 3.26,-2.3 3.69,-2.59 1.62,-1.12 3.15,-2.27 4.6,-3.46 2.02,-1.61 7.11,-5.71 9.01,-7.36 1.89,-1.68 6.58,-5.94 8.38,-7.66 5.45,-5.04 10.49,-10.24 15.46,-15.5 4.1,-4.27 7.96,-8.65 11.81,-13.04 12.34,-14.15 23.77,-28.74 34.67,-43.63 2.41,-3.3 4.78,-6.6 7.13,-9.93 11.69,-16.54 22.6,-33.56 32.74,-50.99 1.06,-1.78 2.1,-3.57 3.12,-5.38 1.97,-3.47 3.87,-6.99 5.75,-10.52 0.59,-1.1 3.69,-6.9 4.27,-8.02 0.57,-1.12 3.42,-7.06 3.98,-8.19 5.36,-10.83 9.83,-22.14 13.35,-33.57 -5.2,10.55 -11.16,20.6 -17.96,30.17 -0.72,0.93 -4.29,6.25 -5.03,7.17 -0.74,0.93 -4.56,6.09 -5.3,7.01 -2.9,3.83 -5.83,7.63 -8.87,11.36 -0.67,0.81 -1.33,1.62 -2.01,2.43 -13.46,16.44 -27.67,32.24 -42.56,47.28 -1.53,1.54 -3.06,3.08 -4.6,4.61 -14.07,13.96 -28.61,27.38 -43.64,39.72 -2.74,2.24 -5.49,4.48 -8.27,6.65 -1.38,1.07 -2.76,2.13 -4.16,3.16 -4.13,3.13 -8.28,6.21 -12.47,8.97 -1.19,0.89 -4.97,3.27 -6.17,4.12 -0.98,0.69 -4.19,2.39 -5.17,3.06 -0.14,0.09 -0.57,0.32 -0.7,0.4 -0.58,0.39 -2.4,1.36 -2.98,1.74 -0.93,0.53 -1.82,0.93 -2.73,1.39 -0.99,0.64 -4.22,1.97 -5.21,2.54 -0.53,0.3 -0.65,1.61 -1.17,1.88 l -1.49,2.59 -0.74,1.27 -0.73,0.99 c -1.28,0.51 -1.52,3.65 -2.75,4.19 l 14.04,34.64"
         style="fill:#282828;fill-opacity:1;fill-rule:nonzero;stroke:none"
         transform="matrix(0.13333333,0,0,-0.13333333,0,600)" />
      <path
         id="path102"
         d="m 2037.2,4003.05 11.24,-6.49 2.76,-1.65 2.37,-1.75 4.72,-3.5 c 6.5,-4.59 12.03,-9.56 17.68,-14.46 11.14,-9.9 21.39,-20.2 31.3,-30.73 19.74,-21.09 37.99,-43.11 55.29,-65.78 17.32,-22.65 33.4,-46.21 48.01,-70.61 3.76,-6.02 7.18,-12.27 10.54,-18.54 l 5.05,-9.38 4.57,-9.65 c 6.29,-12.71 11.04,-26.26 14.35,-39.9 -5.1,13.16 -11.41,25.6 -19.2,37.25 l -5.67,8.78 -6.13,8.5 c -4.07,5.66 -8.18,11.28 -12.63,16.68 -17.34,21.85 -35.96,42.66 -55.61,62.38 -19.62,19.72 -40.02,38.62 -61.25,56.05 -10.61,8.67 -21.46,17 -32.45,24.43 -5.52,3.63 -11.01,7.41 -16.49,10.21 l -4.09,2.29 -2.03,1.14 -1.92,0.77 c -2.55,1.02 -5.06,2.07 -7.52,3.14 l 17.11,40.82"
         style="fill:#282828;fill-opacity:1;fill-rule:nonzero;stroke:none"
         transform="matrix(0.13333333,0,0,-0.13333333,0,600)" />
      <path
         id="path103"
         d="m 2252.4,2822.41 38.86,681.81 -4.46,-682.9 z"
         style="fill:#282828;fill-opacity:1;fill-rule:nonzero;stroke:none"
         transform="matrix(0.13333333,0,0,-0.13333333,0,600)" />
      <path
         id="path104"
         d="m 2286.88,2854.5 31.64,635.02 2.76,-635.75 z"
         style="fill:#282828;fill-opacity:1;fill-rule:nonzero;stroke:none"
         transform="matrix(0.13333333,0,0,-0.13333333,0,600)" />
      <path
         id="path105"
         d="m 2321.35,2886.58 24.42,588.23 9.98,-588.59 z"
         style="fill:#282828;fill-opacity:1;fill-rule:nonzero;stroke:none"
         transform="matrix(0.13333333,0,0,-0.13333333,0,600)" />
      <path
         id="path106"
         d="m 2355.82,2918.67 17.21,541.44 17.2,-541.44 z"
         style="fill:#282828;fill-opacity:1;fill-rule:nonzero;stroke:none"
         transform="matrix(0.13333333,0,0,-0.13333333,0,600)" />
      <path
         id="path107"
         d="m 2070.72,3707.01 c -18.64,15.22 -36.31,16.38 -36.31,16.38 0,0 37.52,-36.08 63.97,-89.94 26.46,-53.88 24.68,-10.2 24.68,-10.2 0,0 -22.29,59.21 -52.34,83.76"
         style="fill:#ffffff;fill-opacity:1;fill-rule:nonzero;stroke:none"
         transform="matrix(0.13333333,0,0,-0.13333333,0,600)" />
      <path
         id="path108"
         d="m 2055.68,3779.44 c 49.92,-43.06 87.44,-114.25 107.16,-181.59 19.72,-67.34 25.49,-132.75 41.84,-166.42 -55.79,86.58 -29.72,89.36 -74.5,177.92 -44.78,88.54 -59.46,97.66 -59.46,97.66 l -15.04,72.43"
         style="fill:#282828;fill-opacity:1;fill-rule:nonzero;stroke:none"
         transform="matrix(0.13333333,0,0,-0.13333333,0,600)" />
      <path
         id="path109"
         d="m 2207.46,3361.8 c 11.88,-13.33 22.97,-25.74 34.77,-37.3 11.71,-11.6 23.9,-22.42 36.56,-32.9 12.66,-10.48 25.73,-20.66 39.03,-31.01 13.25,-10.43 26.8,-20.85 39.82,-33.09 -17.6,3.08 -34.14,9.07 -50,16.66 -15.8,7.67 -30.86,17.14 -44.55,28.53 -13.68,11.36 -26.01,24.67 -35.84,39.69 -9.75,15.03 -17.14,31.73 -19.79,49.42"
         style="fill:#ffffff;fill-opacity:1;fill-rule:nonzero;stroke:none"
         transform="matrix(0.13333333,0,0,-0.13333333,0,600)" />
      <path
         id="path110"
         d="m 2199.87,3351.59 c 12.01,-13.6 22.98,-26.65 34.64,-38.76 11.57,-12.14 23.62,-23.35 36.41,-33.55 12.8,-10.21 26.33,-19.43 40.77,-27.78 14.42,-8.45 29.73,-15.83 45.95,-24 -18.05,-1.92 -36.36,0.66 -53.78,6.32 -17.4,5.72 -33.9,14.71 -48.29,26.26 -14.41,11.53 -26.76,25.54 -36.36,41.04 -9.52,15.54 -16.55,32.53 -19.34,50.47"
         style="fill:#282828;fill-opacity:1;fill-rule:nonzero;stroke:none"
         transform="matrix(0.13333333,0,0,-0.13333333,0,600)" />
      <path
         id="path111"
         d="m 2046.88,2982.17 c -18.19,-0.13 -35.72,0.47 -53.49,1.27 -17.7,0.84 -35.35,1.99 -52.96,3.4 -17.61,1.5 -35.18,3.09 -52.71,5.1 -17.52,1.92 -35,4.21 -52.43,6.61 17.6,-0.36 35.18,-0.6 52.76,-0.47 17.57,0.03 35.13,0.49 52.66,1.05 17.53,0.65 35.03,1.54 52.48,2.75 17.38,1.23 34.99,2.71 51.88,4.8 l 1.81,-24.51"
         style="fill:#282828;fill-opacity:1;fill-rule:nonzero;stroke:none"
         transform="matrix(0.13333333,0,0,-0.13333333,0,600)" />
      <path
         id="path112"
         d="m 2071.73,2958.12 c -42.56,1.93 -84.75,4.8 -127,8.35 -42.21,3.54 -84.34,7.93 -126.28,13.36 42.27,-1.35 84.51,-1.64 126.72,-1.07 42.18,0.55 84.46,1.78 126.38,3.94 l 0.18,-24.58"
         style="fill:#282828;fill-opacity:1;fill-rule:nonzero;stroke:none"
         transform="matrix(0.13333333,0,0,-0.13333333,0,600)" />
      <path
         id="path113"
         d="m 2150.94,2884.37 4.54,273.53 20.03,-272.84 z"
         style="fill:#282828;fill-opacity:1;fill-rule:nonzero;stroke:none"
         transform="matrix(0.13333333,0,0,-0.13333333,0,600)" />
      <path
         id="path114"
         d="m 1430.59,2568.35 c 25.75,19.78 50.2,19.1 74.65,35.7 131.88,89.55 292.14,107.65 550.01,102.64 -93.62,26.67 -337.33,24.64 -424.54,0 197.84,45.81 487.4,30.52 487.4,30.52 0,0 -182.14,30.78 -378.38,21.8 237.29,14.12 359.08,14.12 359.08,14.12 l -330.86,33.34 -83.69,-8.41 c 0,0 -264.07,-164.12 -253.67,-229.71"
         style="fill:#282828;fill-opacity:1;fill-rule:nonzero;stroke:none"
         transform="matrix(0.13333333,0,0,-0.13333333,0,600)" />
      <path
         id="path115"
         d="m 1320.26,2511.97 c 13.19,23.36 27.85,45.42 44.11,65.98 16.4,20.42 33.61,39.94 52,58.15 18.35,18.25 37.4,35.6 57.15,52.05 19.76,16.41 40.07,32.11 61.22,46.49 -19.25,-16.81 -37.42,-34.74 -54.9,-53.22 -17.44,-18.51 -34.01,-37.76 -49.65,-57.58 -15.67,-19.81 -29.92,-40.58 -43.09,-61.75 -13,-21.28 -24.05,-43.43 -33.39,-65.87 l -33.45,15.75"
         style="fill:#282828;fill-opacity:1;fill-rule:nonzero;stroke:none"
         transform="matrix(0.13333333,0,0,-0.13333333,0,600)" />
      <path
         id="path116"
         d="m 1361.69,2611.22 c 15.24,17.49 31.15,34.2 48.01,49.81 16.82,15.61 34.24,30.45 52.2,44.52 17.98,14.03 36.41,27.43 55.52,39.74 -18.6,-15.32 -36.27,-31.63 -53.29,-48.48 -15.38,-15.29 -30.1,-31.14 -44.11,-47.49 -1.48,-1.72 -2.94,-3.45 -4.39,-5.17 -15.35,-18.18 -29.42,-37.27 -42.41,-56.79 -10.28,-15.68 -19.41,-31.88 -27.47,-48.38 -1.62,-3.6 -4.79,-5.81 -6.3,-9.44 l -30.78,16.12 c 15.97,23.88 33.75,45.62 53.02,65.56"
         style="fill:#282828;fill-opacity:1;fill-rule:nonzero;stroke:none"
         transform="matrix(0.13333333,0,0,-0.13333333,0,600)" />
      <path
         id="path117"
         d="m 1359.02,2644.48 c 14.07,14.58 28.67,28.47 44.02,41.46 15.29,12.99 31.05,25.32 47.25,37 16.19,11.65 32.74,22.76 49.81,33 -17.95,-13.83 -35.12,-28.51 -51.69,-43.75 -14.96,-13.81 -29.33,-28.16 -43.04,-43.02 -1.44,-1.56 -2.88,-3.13 -4.31,-4.71 -15.02,-16.54 -28.91,-33.94 -41.72,-51.84 -10.17,-14.36 -19.31,-29.23 -27.41,-44.43 -1.22,-2.7 -5.6,-2.61 -6.73,-5.33 l -28.12,16.49 c 18.75,24.39 39.66,45.83 61.94,65.13"
         style="fill:#282828;fill-opacity:1;fill-rule:nonzero;stroke:none"
         transform="matrix(0.13333333,0,0,-0.13333333,0,600)" />
      <path
         id="path118"
         d="m 1356.35,2677.74 c 12.9,11.66 26.2,22.74 40.03,33.12 13.76,10.36 27.87,20.18 42.3,29.48 14.41,9.26 29.07,18.08 44.11,26.24 -17.31,-12.32 -33.99,-25.38 -50.09,-39.01 -14.55,-12.33 -28.57,-25.18 -41.97,-38.54 -1.42,-1.41 -2.83,-2.83 -4.24,-4.26 -14.68,-14.91 -28.4,-30.62 -41.04,-46.89 -10.06,-13.05 -19.2,-26.58 -27.35,-40.48 -0.81,-1.8 -6.4,0.59 -7.15,-1.22 l -25.46,16.87 c 21.54,24.89 45.56,46.02 70.86,64.69"
         style="fill:#282828;fill-opacity:1;fill-rule:nonzero;stroke:none"
         transform="matrix(0.13333333,0,0,-0.13333333,0,600)" />
      <path
         id="path119"
         d="m 1353.68,2711 c 11.73,8.74 23.72,17.02 36.04,24.78 12.23,7.73 24.69,15.04 37.35,21.95 12.61,6.88 25.4,13.41 38.4,19.5 -16.66,-10.83 -32.84,-22.27 -48.49,-34.28 -14.13,-10.85 -27.8,-22.2 -40.9,-34.06 -1.39,-1.26 -2.77,-2.53 -4.15,-3.81 -14.36,-13.28 -27.9,-27.3 -40.36,-41.94 -9.95,-11.73 -19.1,-23.93 -27.29,-36.54 -0.41,-0.9 -7.21,3.81 -7.59,2.9 l -22.79,17.24 c 24.32,25.4 51.47,46.22 79.78,64.26"
         style="fill:#282828;fill-opacity:1;fill-rule:nonzero;stroke:none"
         transform="matrix(0.13333333,0,0,-0.13333333,0,600)" />
      <path
         id="path120"
         d="m 1262.31,2680.43 c 27.1,25.92 57.37,46.42 88.7,63.83 31.41,17.33 64.03,31.49 97.15,43.62 -30.47,-17.76 -59.77,-37.28 -86.72,-59.13 -26.87,-21.87 -51.48,-46.16 -70.99,-72.94 l -28.14,24.62"
         style="fill:#282828;fill-opacity:1;fill-rule:nonzero;stroke:none"
         transform="matrix(0.13333333,0,0,-0.13333333,0,600)" />
      <path
         id="path121"
         d="m 1335.55,2458.35 c 0,0 57.78,50.08 127.24,57.05 0,0 119.48,78.38 275.77,85.27 156.29,6.89 281.43,-5.2 281.43,-5.2 l 25.97,52.92 c 0,0 -80.81,25.03 -170.27,19.73 -89.46,-5.3 -89.95,12.91 -177.12,-7.23 -87.17,-20.13 -288.69,-104.21 -288.69,-104.21 0,0 -64.14,-59.86 -74.33,-98.33"
         style="fill:#282828;fill-opacity:1;fill-rule:nonzero;stroke:none"
         transform="matrix(0.13333333,0,0,-0.13333333,0,600)" />
      <path
         id="path122"
         d="m 3177.33,3144.58 c -3.66,-4.12 -7.61,-7.99 -11.56,-11.85 -4.05,-3.75 -8.44,-7.11 -12.73,-10.56 -8.76,-6.67 -17.7,-13.05 -26.97,-18.85 -18.43,-11.74 -37.69,-21.85 -57.41,-30.62 -19.71,-8.77 -39.9,-16.21 -60.32,-22.6 -20.45,-6.33 -41.18,-11.46 -61.98,-15.96 20.13,6.9 39.98,14.53 59.37,22.98 19.43,8.38 38.37,17.71 56.54,28.18 18.17,10.47 35.56,22.08 51.77,34.95 8.16,6.37 15.88,13.22 23.36,20.24 l 11.05,10.66 c 3.63,3.58 7.25,7.16 11.17,10.48 l 17.71,-17.05"
         style="fill:#282828;fill-opacity:1;fill-rule:nonzero;stroke:none"
         transform="matrix(0.13333333,0,0,-0.13333333,0,600)" />
      <path
         id="path123"
         d="m 2464.98,3011.08 c 32.47,-2.12 64.98,-3.55 97.62,-4.43 32.62,-0.8 65.37,-1.15 98.14,-0.18 16.39,0.5 32.79,1.08 49.17,2.06 16.39,0.9 32.8,1.94 49.17,3.4 32.74,3.04 65.46,6.64 97.81,13.55 -31.07,-11.49 -63.58,-19.15 -96.17,-25.3 -16.32,-3.09 -32.69,-5.9 -49.14,-8.32 -16.45,-2.33 -32.96,-4.31 -49.5,-6.11 -66.12,-6.51 -133.32,-8.83 -199.78,0.9 l 2.68,24.43"
         style="fill:#282828;fill-opacity:1;fill-rule:nonzero;stroke:none"
         transform="matrix(0.13333333,0,0,-0.13333333,0,600)" />
      <path
         id="path124"
         d="m 2439.83,2990.68 c 35.62,-5.88 73.51,-8.4 111.13,-9.64 37.72,-1.11 75.62,-0.37 113.48,1.53 37.87,1.91 75.72,5.18 113.39,10.06 37.68,4.81 75.25,11.15 112.26,20.34 -8.71,-4.19 -17.69,-7.58 -26.59,-11.41 -9.05,-3.32 -18.17,-6.37 -27.36,-9.28 -18.41,-5.61 -37.11,-10.23 -55.94,-13.99 -37.72,-7.42 -75.88,-12.27 -114.16,-15.1 -38.28,-3.14 -76.66,-4.15 -115.12,-4.77 l -28.91,-0.26 c -9.66,0.25 -19.32,0.12 -29.05,0.19 l -14.67,0.02 c -4.89,-0.24 -9.84,-0.07 -14.83,-0.08 -5.03,0.02 -9.95,-0.23 -15.15,-0.21 -5.18,0.03 -10.37,0.2 -15.71,-0.06 l 7.23,32.66"
         style="fill:#282828;fill-opacity:1;fill-rule:nonzero;stroke:none"
         transform="matrix(0.13333333,0,0,-0.13333333,0,600)" />
      <path
         id="path125"
         d="m 2994.67,2956.14 c -22.44,-12.07 -45.4,-18.68 -68.41,-24.77 -23.03,-6.06 -46.26,-10.09 -69.46,-14.08 -46.46,-7.49 -93.17,-11.72 -139.84,-14.76 -46.71,-2.84 -93.43,-3.93 -140.12,-3.97 -46.69,0.26 -93.34,1.86 -139.88,4.75 23.31,0.85 46.6,1.01 69.88,2.15 23.27,0.65 46.51,1.9 69.74,3.11 46.45,2.57 92.8,6.11 138.97,10.91 46.16,4.62 92.12,11.06 137.48,19.46 22.6,4.47 45.19,9.13 67.12,15.36 21.86,5.99 43.92,12.92 62.47,23.26 l 12.05,-21.42"
         style="fill:#282828;fill-opacity:1;fill-rule:nonzero;stroke:none"
         transform="matrix(0.13333333,0,0,-0.13333333,0,600)" />
      <path
         id="path126"
         d="m 1977.66,2887.91 c 18.14,-2.91 35.02,-11.36 50.12,-21.39 15.13,-10.16 28.69,-22.18 41.1,-35.01 12.41,-12.84 23.66,-26.57 34.06,-40.89 10.33,-14.4 19.95,-29.27 27.99,-45.71 -15.63,9.54 -29.3,21.01 -42.4,32.82 -13.04,11.88 -25.35,24.25 -37.34,36.72 -12.01,12.45 -23.69,24.98 -35.67,37.22 -11.98,12.3 -24.17,24.12 -37.86,36.24"
         style="fill:#ffffff;fill-opacity:1;fill-rule:nonzero;stroke:none"
         transform="matrix(0.13333333,0,0,-0.13333333,0,600)" />
      <path
         id="path127"
         d="m 1990.48,2896.9 c 18.21,-2.94 35.29,-10.44 51,-19.81 15.68,-9.47 30.07,-21.1 42.75,-34.42 12.68,-13.3 23.66,-28.37 32.04,-44.84 8.28,-16.46 14.16,-34.45 14.66,-52.92 -10.26,15.25 -20.23,29.2 -30.96,42.53 -10.66,13.33 -21.88,25.99 -33.55,38.31 -11.69,12.3 -23.84,24.22 -36.46,35.91 -12.63,11.77 -25.68,23.1 -39.48,35.24"
         style="fill:#282828;fill-opacity:1;fill-rule:nonzero;stroke:none"
         transform="matrix(0.13333333,0,0,-0.13333333,0,600)" />
      <path
         id="path128"
         d="m 2234.79,2773.42 -25.04,-686.5 -4,686.85 z"
         style="fill:#282828;fill-opacity:1;fill-rule:nonzero;stroke:none"
         transform="matrix(0.13333333,0,0,-0.13333333,0,600)" />
      <path
         id="path129"
         d="m 2203.33,2744.75 -21.53,-600.97 -7.5,601.21 z"
         style="fill:#282828;fill-opacity:1;fill-rule:nonzero;stroke:none"
         transform="matrix(0.13333333,0,0,-0.13333333,0,600)" />
      <path
         id="path130"
         d="m 2171.88,2716.08 -18.02,-515.44 -11.01,515.56 z"
         style="fill:#282828;fill-opacity:1;fill-rule:nonzero;stroke:none"
         transform="matrix(0.13333333,0,0,-0.13333333,0,600)" />
      <path
         id="path131"
         d="m 2140.43,2687.41 -14.51,-429.9 -14.52,429.9 z"
         style="fill:#282828;fill-opacity:1;fill-rule:nonzero;stroke:none"
         transform="matrix(0.13333333,0,0,-0.13333333,0,600)" />
      <path
         id="path132"
         d="m 2268.45,2807.73 c 43.6,-11.02 86.16,-11.29 128.94,-12.44 42.73,-1.31 85.39,-3.02 128.05,-4.93 l 127.91,-4.92 c 21.31,-0.95 42.63,-1.44 63.94,-2.14 21.31,-0.68 42.62,-1.36 63.94,-1.76 l -255.87,-4.74 c -42.63,-0.94 -85.23,-2.07 -127.78,-3.6 -42.56,-1.65 -85.04,-3.4 -127.44,-3.94 l -1.69,38.47"
         style="fill:#282828;fill-opacity:1;fill-rule:nonzero;stroke:none"
         transform="matrix(0.13333333,0,0,-0.13333333,0,600)" />
      <path
         id="path133"
         d="m 2369.53,2700.19 c 31.99,7.73 63.29,10.44 94.7,12.68 31.36,2.04 62.65,2.91 93.93,3.16 31.27,0.25 62.51,-0.27 93.72,-1.33 31.2,-1.12 62.39,-2.75 93.43,-5.71 -31.17,0.91 -62.32,0.49 -93.44,-0.44 -31.13,-0.99 -62.21,-2.51 -93.22,-4.8 -31,-2.29 -61.94,-5.2 -92.61,-9.23 -30.52,-4.14 -61.36,-9.08 -89.52,-17.9 l -6.99,23.57"
         style="fill:#282828;fill-opacity:1;fill-rule:nonzero;stroke:none"
         transform="matrix(0.13333333,0,0,-0.13333333,0,600)" />
      <path
         id="path134"
         d="m 2300.88,2771.24 c 56.28,0.28 427.11,-7.9 468,-15.11 -209.71,-2.29 -338.46,-8.01 -411.72,-14.91 162.09,2.89 365.91,6.73 440.52,-15.87 -125,10.58 -292.87,10.24 -407.34,-23.5 l -1.44,-13.45 -55.11,36.72 -39.47,36.93 6.56,9.19"
         style="fill:#282828;fill-opacity:1;fill-rule:nonzero;stroke:none"
         transform="matrix(0.13333333,0,0,-0.13333333,0,600)" />
      <path
         id="path135"
         d="m 2620.18,2744.34 c 9.8,-12.81 21.32,-23.88 33.46,-33.85 5.76,-4.74 11.71,-9.18 17.8,-13.4 20.63,4.49 44.11,2.37 65.79,0.92 -9.94,4.44 -19.77,9.07 -29.31,14.12 -25.18,13.23 -48.95,29.04 -67.57,49.02 -4.65,4.99 -8.78,10.33 -12.52,15.88 -3.4,5.29 -7.19,12.29 -11.12,18.73 -7.75,13.07 -16.46,25.85 -26.47,37.64 -9.96,11.8 -21.42,22.59 -34.51,30.87 -13.02,8.3 -27.47,14.19 -42.25,16.59 3.37,-1.67 6.73,-3.22 10,-4.95 3.17,-1.93 6.47,-3.49 9.44,-5.67 3.01,-2.09 6.04,-4.05 8.79,-6.46 l 4.2,-3.4 3.97,-3.67 c 5.33,-4.83 9.99,-10.3 14.59,-15.73 4.41,-5.65 8.54,-11.46 12.37,-17.51 7.65,-12.1 14.24,-24.89 20.37,-38.08 3.11,-6.64 5.67,-13.08 9.67,-20.68 3.93,-7.16 8.35,-14.02 13.3,-20.37"
         style="fill:#ffffff;fill-opacity:1;fill-rule:nonzero;stroke:none"
         transform="matrix(0.13333333,0,0,-0.13333333,0,600)" />
      <path
         id="path136"
         d="m 2793.65,2649.99 c -29.23,10.14 -58.01,22.15 -85.36,37.44 -27.32,15.12 -53.5,33.76 -74.4,58.4 -5.26,6.1 -9.88,12.84 -14.14,19.77 -1.87,3.53 -4.11,7.37 -5.62,10.64 -1.63,3.41 -3.29,6.78 -4.98,10.12 -6.77,13.4 -14.08,26.38 -22.56,38.55 -16.55,24.53 -39.53,45.08 -68.31,55.95 15.03,-2.86 29.64,-8.92 42.76,-17.43 13.11,-8.53 24.87,-19.25 34.98,-31.21 10.16,-11.95 19.01,-24.92 26.93,-38.21 4.04,-6.62 7.83,-13.54 11.48,-19.25 4.08,-5.81 8.4,-11.47 13.39,-16.65 9.84,-10.47 21.2,-19.68 33.3,-27.93 12.17,-8.15 24.77,-15.83 38.04,-22.49 26.41,-13.47 54.29,-24.45 82.54,-34.47 l -8.05,-23.23"
         style="fill:#282828;fill-opacity:1;fill-rule:nonzero;stroke:none"
         transform="matrix(0.13333333,0,0,-0.13333333,0,600)" />
      <path
         id="path137"
         d="m 3179.47,3100.32 c -7.96,-14.67 -17.55,-27.68 -27.73,-39.9 -10.22,-12.23 -21.05,-23.69 -32.2,-34.73 -22.39,-21.97 -46.07,-42.23 -70.36,-61.61 -24.31,-19.34 -49.22,-37.81 -74.57,-55.59 -25.36,-17.77 -51.07,-35 -77.32,-51.35 25.1,18.05 49.58,36.91 73.63,56.25 24.03,19.36 47.54,39.33 70.28,60.05 22.73,20.73 44.7,42.23 64.98,64.96 10.08,11.4 19.75,23.1 28.58,35.22 8.8,12.1 16.77,24.71 22.72,37.67 l 21.99,-10.97"
         style="fill:#282828;fill-opacity:1;fill-rule:nonzero;stroke:none"
         transform="matrix(0.13333333,0,0,-0.13333333,0,600)" />
      <path
         id="path138"
         d="m 3189.6,3069.07 c -7.76,-12.72 -16.75,-24.18 -26.22,-35.02 -9.43,-10.79 -19.37,-20.96 -29.58,-30.78 -20.51,-19.64 -42.16,-37.76 -64.3,-55.14 -22.18,-17.32 -44.93,-33.8 -68.09,-49.62 -23.19,-15.78 -46.72,-31.01 -70.8,-45.22 22.98,15.93 45.3,32.82 67.17,50.19 20.85,16.58 41.25,33.72 60.99,51.51 1.16,1.04 2.31,2.09 3.47,3.13 18.5,16.86 36.5,34.24 53.37,52.51 2.07,2.23 4.13,4.47 6.16,6.73 9.27,10.35 18.19,20.98 26.43,31.94 5.76,7.66 11.2,15.53 16.01,23.55 1.57,2.84 4.59,4.29 5.92,7.18 l 19.47,-10.96"
         style="fill:#282828;fill-opacity:1;fill-rule:nonzero;stroke:none"
         transform="matrix(0.13333333,0,0,-0.13333333,0,600)" />
      <path
         id="path139"
         d="m 3199.73,3037.83 c -7.56,-10.77 -15.95,-20.69 -24.7,-30.14 -8.66,-9.35 -17.7,-18.25 -26.97,-26.84 -18.62,-17.3 -38.24,-33.3 -58.24,-48.66 -20.04,-15.31 -40.65,-29.81 -61.63,-43.65 -20.99,-13.79 -42.34,-27.04 -64.27,-39.1 20.88,13.82 41.02,28.73 60.72,44.11 19.01,14.89 37.57,30.33 55.48,46.42 1.05,0.94 2.1,1.89 3.14,2.83 16.78,15.26 33.13,30.94 48.48,47.45 1.88,2.01 3.77,4.03 5.62,6.06 8.47,9.31 16.62,18.86 24.29,28.67 5.34,6.83 10.43,13.81 15.1,20.89 1.04,1.9 5.13,0.97 6.01,2.89 l 16.97,-10.93"
         style="fill:#282828;fill-opacity:1;fill-rule:nonzero;stroke:none"
         transform="matrix(0.13333333,0,0,-0.13333333,0,600)" />
      <path
         id="path140"
         d="m 3209.84,3006.58 c -7.35,-8.83 -15.13,-17.19 -23.17,-25.25 -7.89,-7.92 -16.02,-15.54 -24.37,-22.9 -16.7,-14.97 -34.29,-28.83 -52.16,-42.18 -17.91,-13.31 -36.36,-25.82 -55.16,-37.68 -18.82,-11.81 -37.98,-23.06 -57.75,-32.98 18.78,11.71 36.74,24.64 54.27,38.04 17.17,13.19 33.88,26.93 49.96,41.32 0.95,0.84 1.89,1.69 2.83,2.54 15.06,13.64 29.75,27.63 43.57,42.38 1.71,1.79 3.41,3.59 5.1,5.4 7.66,8.26 15.06,16.74 22.15,25.39 4.9,6 9.66,12.09 14.18,18.24 0.52,0.95 5.68,-2.36 6.12,-1.39 l 14.43,-10.93"
         style="fill:#282828;fill-opacity:1;fill-rule:nonzero;stroke:none"
         transform="matrix(0.13333333,0,0,-0.13333333,0,600)" />
      <path
         id="path141"
         d="m 3219.97,2975.34 c -14.1,-13.58 -28.39,-26.9 -43.41,-39.33 -14.82,-12.64 -30.38,-24.36 -46.1,-35.71 -15.78,-11.29 -32.07,-21.81 -48.68,-31.7 -16.64,-9.82 -33.63,-19.08 -51.25,-26.86 16.68,9.6 32.48,20.55 47.84,31.97 15.32,11.5 30.19,23.53 44.44,36.21 14.2,12.76 28.11,25.77 41.18,39.58 13.28,13.59 25.69,27.95 37.85,42.43 l 18.13,-16.59"
         style="fill:#282828;fill-opacity:1;fill-rule:nonzero;stroke:none"
         transform="matrix(0.13333333,0,0,-0.13333333,0,600)" />
      <path
         id="path142"
         d="m 3167.01,2525.3 c -5.97,13.04 -13.31,26.16 -22.23,38.6 -4.38,6.26 -8.73,12.55 -13.62,18.54 -4.77,6.06 -9.42,12.22 -14.56,18.04 -19.93,23.74 -41.46,46.42 -63.93,68.13 -22.46,21.73 -45.75,42.7 -69.96,62.57 -12.12,9.91 -24.47,19.57 -37.2,28.69 -6.41,4.5 -12.76,9.12 -19.46,13.18 -6.52,4.39 -13.47,7.97 -20.42,11.68 7.15,-3.24 14.4,-6.39 21.2,-10.36 7,-3.63 13.65,-7.84 20.39,-11.94 13.38,-8.32 26.4,-17.21 39.23,-26.37 25.62,-18.37 50.4,-37.92 74.49,-58.35 24.1,-20.43 47.36,-41.92 69.39,-64.92 5.64,-5.61 10.87,-11.67 16.21,-17.62 5.45,-5.84 10.47,-12.16 15.52,-18.47 10.22,-12.48 19.33,-26.24 27.36,-41.3 l -22.41,-10.1"
         style="fill:#282828;fill-opacity:1;fill-rule:nonzero;stroke:none"
         transform="matrix(0.13333333,0,0,-0.13333333,0,600)" />
      <path
         id="path143"
         d="m 3423.5,2769.25 -245.29,12.29 245.29,12.3 z"
         style="fill:#282828;fill-opacity:1;fill-rule:nonzero;stroke:none"
         transform="matrix(0.13333333,0,0,-0.13333333,0,600)" />
      <path
         id="path144"
         d="m 3377.11,2743.39 -178.06,12.29 178.06,12.29 z"
         style="fill:#282828;fill-opacity:1;fill-rule:nonzero;stroke:none"
         transform="matrix(0.13333333,0,0,-0.13333333,0,600)" />
      <path
         id="path145"
         d="m 3330.71,2717.53 -110.83,12.29 110.83,12.29 z"
         style="fill:#282828;fill-opacity:1;fill-rule:nonzero;stroke:none"
         transform="matrix(0.13333333,0,0,-0.13333333,0,600)" />
      <path
         id="path146"
         d="m 3227.67,2931.32 -15.57,19.02 57.62,47.15 15.56,-19.02 -57.61,-47.15"
         style="fill:#282828;fill-opacity:1;fill-rule:nonzero;stroke:none"
         transform="matrix(0.13333333,0,0,-0.13333333,0,600)" />
      <path
         id="path147"
         d="m 3222.32,2953.38 c 3.14,28.58 0.5,58.55 -5.63,87.76 -3.11,14.63 -7.15,29.14 -12.19,43.34 -5.06,14.2 -11.07,28.13 -18.61,41.36 9.25,-12.09 17.2,-25.27 24.25,-38.91 7.04,-13.66 13.15,-27.85 18.37,-42.42 10.34,-29.17 17.51,-59.93 18.37,-92.15 l -24.56,1.02"
         style="fill:#282828;fill-opacity:1;fill-rule:nonzero;stroke:none"
         transform="matrix(0.13333333,0,0,-0.13333333,0,600)" />
      <path
         id="path148"
         d="m 3241.58,2968.4 c 1.03,16.05 1.53,31.93 0.48,47.62 -1.02,15.68 -3.65,31.26 -8.08,46.64 -8.79,30.81 -22.41,60.75 -35.9,90.45 9.58,-13.37 18.68,-27.04 27.44,-41.04 8.5,-14.13 16.7,-28.62 23.73,-44.05 6.8,-15.49 12.01,-32.12 15.42,-49.03 2.84,-16.9 7.35,-33.98 1.49,-50.59 h -24.58"
         style="fill:#282828;fill-opacity:1;fill-rule:nonzero;stroke:none"
         transform="matrix(0.13333333,0,0,-0.13333333,0,600)" />
      <path
         id="path149"
         d="m 3246.2,2983.97 c 6.98,-1.51 14.07,-3.03 19.9,-5.3 6.26,-1.97 11.93,-4.42 17.62,-6.81 11.34,-4.86 22.1,-10.21 32.69,-15.78 21.13,-11.16 41.44,-23.24 61.38,-35.83 19.94,-12.57 39.39,-25.83 58.37,-39.66 18.9,-13.92 37.61,-28.28 54.36,-44.62 -18.85,13.82 -39.14,25.27 -59.59,36.29 -20.51,10.92 -41.35,21.2 -62.48,30.69 -21.12,9.5 -42.46,18.41 -63.95,26.15 -10.73,3.84 -21.53,7.41 -32.19,10.28 -5.32,1.41 -10.64,2.87 -15.72,3.66 -5.31,1.26 -9.78,1.33 -14.3,1.79 l 3.91,39.14"
         style="fill:#282828;fill-opacity:1;fill-rule:nonzero;stroke:none"
         transform="matrix(0.13333333,0,0,-0.13333333,0,600)" />
      <path
         id="path150"
         d="M 3461.65,2811.91 H 3554 l -9.33,-19.98 c 0,0 -131.98,-115.05 -217.8,-139.08 l -40.4,-13.33 c 0,0 -8.72,46.16 55.74,86.2 64.45,40.03 101.8,61.64 119.44,86.19"
         style="fill:#282828;fill-opacity:1;fill-rule:nonzero;stroke:none"
         transform="matrix(0.13333333,0,0,-0.13333333,0,600)" />
      <path
         id="path151"
         d="m 3256.51,2680.37 c -0.28,-19.08 -3.91,-35.98 -8.03,-52.87 -4.25,-16.8 -9.46,-33.17 -15.33,-49.26 -5.88,-16.09 -12.47,-31.88 -19.91,-47.23 -7.53,-15.3 -15.86,-30.26 -25.91,-43.91 8.32,14.76 14.69,30.41 20.24,46.27 5.46,15.91 9.99,32.09 13.81,48.39 3.8,16.3 6.89,32.75 8.98,49.17 2.02,16.29 3.25,33.11 1.62,47.87 l 24.53,1.57"
         style="fill:#282828;fill-opacity:1;fill-rule:nonzero;stroke:none"
         transform="matrix(0.13333333,0,0,-0.13333333,0,600)" />
      <path
         id="path152"
         d="m 3274.18,2664.56 c 0.59,-20.27 -3.29,-38.81 -8.15,-56.75 -4.96,-17.91 -11.39,-35.1 -18.57,-51.87 -7.18,-16.77 -15.13,-33.13 -23.78,-49.07 -8.68,-15.9 -17.98,-31.51 -28.65,-46.06 8.95,15.65 16.34,32.07 23.1,48.69 6.7,16.63 12.66,33.54 17.78,50.62 5.11,17.07 9.39,34.35 12.11,51.65 2.68,17.19 4.01,34.72 1.69,50.45 l 24.47,2.34"
         style="fill:#282828;fill-opacity:1;fill-rule:nonzero;stroke:none"
         transform="matrix(0.13333333,0,0,-0.13333333,0,600)" />
      <path
         id="path153"
         d="m 2480.01,2595.47 -20.89,49.55 c 0,0 68.3,25.49 130.83,26.45 62.53,0.97 116.4,-3.36 116.4,-3.36 0,0 26.46,-36.79 30.88,-50.99 2.31,24.54 -10.68,52.43 -10.68,52.43 l 107.74,-22.12 27.42,-69.27 20.19,-4.81 -24.04,72.64 21.81,-2.75 25.96,-78.54 32.18,-5.06 -22.73,73.36 28.91,-9.5 25.63,-78.52 65.85,-28.63 -28.54,82.56 c 0,0 86.79,-40.21 113.39,-67.03 26.61,-26.83 41.44,-63.54 46.1,-78.85 4.64,-15.32 1.8,-48.98 1.8,-48.98 0,0 -50.92,70.89 -111.63,100.19 -60.7,29.31 -129.16,73.76 -247.63,89.23 -118.48,15.48 -243.62,17.87 -328.95,2"
         style="fill:#282828;fill-opacity:1;fill-rule:nonzero;stroke:none"
         transform="matrix(0.13333333,0,0,-0.13333333,0,600)" />
      <path
         id="path154"
         d="m 2089.73,1892.29 c -17.32,-19.24 -42.41,-36.08 -61.57,-32.72 20.68,-19.24 26.22,-17.55 41.42,-7.48 14,9.28 20.15,40.2 20.15,40.2"
         style="fill:#ffffff;fill-opacity:1;fill-rule:nonzero;stroke:none"
         transform="matrix(0.13333333,0,0,-0.13333333,0,600)" />
      <path
         id="path155"
         d="m 2058.22,1846.16 c 7.89,3.4 14.81,8.7 19.98,15.56 6.65,8.85 14.9,23.23 20.61,44.99 11.12,42.32 47.67,86.1 71.24,103.9 23.57,17.79 79.84,61.24 100.53,76.31 20.68,15.07 78.39,96.36 78.39,96.36 0,0 -50.49,-101 -86.09,-127.95 -35.59,-26.93 -72.15,-58.19 -88.5,-80.32 -16.35,-22.12 -43.77,-47.62 -51.46,-86.09 -7.7,-38.48 -28.38,-94.76 -63.5,-107.75 -35.11,-12.99 -33.66,50.99 -33.66,50.99 l 32.46,14"
         style="fill:#282828;fill-opacity:1;fill-rule:nonzero;stroke:none"
         transform="matrix(0.13333333,0,0,-0.13333333,0,600)" />
      <path
         id="path156"
         d="m 2252.26,339.301 c 4.2,4.808 9.03,9.07 14.29,12.808 L 2250,761.969 2233.63,356.66 c 7.11,-4.648 13.31,-10.609 18.63,-17.359"
         style="fill:#282828;fill-opacity:1;fill-rule:nonzero;stroke:none"
         transform="matrix(0.13333333,0,0,-0.13333333,0,600)" />
      <path
         id="path157"
         d="m 2304.2,401.879 -16.12,279.281 -22.16,-313.238 25.19,9.738 c 2.78,9.039 7.28,17.16 13.09,24.219"
         style="fill:#282828;fill-opacity:1;fill-rule:nonzero;stroke:none"
         transform="matrix(0.13333333,0,0,-0.13333333,0,600)" />
      <path
         id="path158"
         d="m 2325.45,433.219 c 4.46,6.043 9.86,11 16.11,15 l -15.41,152.14 -22.91,-181.789 13.47,3.989 c 2.5,3.839 5.36,7.421 8.74,10.66"
         style="fill:#282828;fill-opacity:1;fill-rule:nonzero;stroke:none"
         transform="matrix(0.13333333,0,0,-0.13333333,0,600)" />
      <path
         id="path159"
         d="m 2590.21,664.5 -17.09,9.43 c -5.83,3.031 -10.83,6.949 -16.25,10.449 -10.89,6.941 -20.82,14.871 -30.84,22.762 -9.99,7.898 -19.25,16.519 -28.81,24.871 -9.07,8.797 -18.27,17.476 -27.1,26.508 -8.58,9.242 -17.32,18.359 -25.73,27.718 -8.13,9.633 -16.36,19.153 -24.37,28.852 l -23.19,29.75 -21.91,30.672 c -28.44,41.386 -53.77,84.886 -75.03,130.248 -21.38,45.25 -38.82,92.44 -49.89,141 16.28,-47.07 37.35,-91.99 61.41,-135.07 24.29,-42.971 51.58,-84.088 81.31,-123.28 29.72,-39.199 62.3,-76.109 96.71,-110.851 l 26.37,-25.43 13.69,-12.059 c 4.57,-4.011 8.97,-8.261 13.77,-11.929 18.6,-15.571 38.08,-29.809 58.36,-41.871 l -11.41,-21.77"
         style="fill:#282828;fill-opacity:1;fill-rule:nonzero;stroke:none"
         transform="matrix(0.13333333,0,0,-0.13333333,0,600)" />
      <path
         id="path160"
         d="m 2091.09,533.332 c -33.27,-14.41 -181.41,61.258 -223.1,126.668 32.07,-76.949 177.24,-178.93 183.54,-180.852 6.29,-1.918 39.56,54.184 39.56,54.184"
         style="fill:#282828;fill-opacity:1;fill-rule:nonzero;stroke:none"
         transform="matrix(0.13333333,0,0,-0.13333333,0,600)" />
      <path
         id="path161"
         d="m 2620.44,712.43 c 0.29,-46.18 -84.36,-156.328 -157.47,-197.211 75.99,24.062 200.09,134.191 224.14,169.793 l -66.67,27.418"
         style="fill:#282828;fill-opacity:1;fill-rule:nonzero;stroke:none"
         transform="matrix(0.13333333,0,0,-0.13333333,0,600)" />
      <path
         id="path162"
         d="m 2093.95,486.199 c 29.93,-66.687 153.06,-162.89 153.06,-162.89 l 159.57,207.113 44.39,-71.492 c 0,0 -3.7,-109.598 -191.05,-266.258 0,0 -62.38,24.297 -168.83,239.789 67.33,-100.051 125.78,-149.551 139.24,-157.242 -94.27,116.711 -116.67,155.691 -136.38,210.98"
         style="fill:#282828;fill-opacity:1;fill-rule:nonzero;stroke:none"
         transform="matrix(0.13333333,0,0,-0.13333333,0,600)" />
      <path
         id="path163"
         d="m 1883.69,707.898 c 32.68,17.493 63.98,40.141 93.76,64.571 29.73,24.633 58.08,51.301 85.09,79.351 26.98,28.071 52.69,57.539 76.3,88.672 11.73,15.598 23.09,31.547 33.3,48.219 l 7.64,12.529 c 2.41,4.26 4.59,8.62 6.9,12.94 4.91,8.54 8.25,17.73 12.23,26.76 -3.09,-9.29 -5.61,-18.93 -9.71,-27.9 -1.91,-4.55 -3.7,-9.18 -5.73,-13.681 l -6.49,-13.328 c -8.71,-17.769 -18.65,-34.922 -29.01,-51.789 -20.88,-33.66 -44.06,-65.902 -68.78,-96.992 -24.76,-31.07 -51.09,-61 -79.43,-89.352 -28.51,-28.187 -58.79,-55.019 -93.52,-78.078 l -22.55,38.078"
         style="fill:#282828;fill-opacity:1;fill-rule:nonzero;stroke:none"
         transform="matrix(0.13333333,0,0,-0.13333333,0,600)" />
      <path
         id="path164"
         d="m 1926.4,666.199 c 27.66,17.961 53.88,39.891 78.95,63.063 25.07,23.25 49.06,48.019 72.06,73.75 23.02,25.726 44.88,52.609 65.51,80.418 20.32,27.98 40.56,56.429 54.07,88.57 -4.59,-16.859 -12.21,-32.719 -19.68,-48.551 -7.91,-15.609 -16.27,-31.008 -25.16,-46.109 -17.77,-30.18 -36.92,-59.621 -57.45,-88.141 -20.53,-28.539 -42.23,-56.328 -65.54,-83.07 -23.39,-26.68 -48.16,-52.481 -76.67,-75.668 l -26.09,35.738"
         style="fill:#282828;fill-opacity:1;fill-rule:nonzero;stroke:none"
         transform="matrix(0.13333333,0,0,-0.13333333,0,600)" />
      <path
         id="path165"
         d="m 1969.17,624.281 c 22.69,18.02 44.16,38.688 64.77,60.328 20.64,21.653 40.28,44.551 59.14,68.153 18.88,23.59 37.09,47.84 54.43,72.73 8.64,12.469 17.15,25.047 25.24,37.887 4.11,6.402 8.04,12.883 11.85,19.449 3.8,6.57 7.45,13.223 10.46,20.231 -2.14,-7.321 -4.99,-14.45 -7.98,-21.469 -3.02,-7.02 -6.16,-13.988 -9.48,-20.879 -6.53,-13.82 -13.51,-27.43 -20.64,-40.973 -14.34,-27.039 -29.64,-53.609 -45.81,-79.738 -16.14,-26.148 -33.23,-51.82 -51.77,-76.699 -18.55,-24.891 -38.24,-49.199 -60.7,-71.992 l -29.51,32.972"
         style="fill:#282828;fill-opacity:1;fill-rule:nonzero;stroke:none"
         transform="matrix(0.13333333,0,0,-0.13333333,0,600)" />
      <path
         id="path166"
         d="m 2012.04,582.148 c 18.05,17.422 35.18,36.454 51.6,56.313 16.22,20.051 31.79,40.848 46.78,62.16 14.86,21.41 29.22,43.27 43.03,65.527 13.78,22.282 27.14,44.883 39.69,67.973 -9.2,-24.641 -19.3,-48.961 -29.9,-73.121 -10.64,-24.141 -21.91,-48.051 -33.83,-71.738 -12.07,-23.614 -24.86,-46.953 -38.64,-69.922 -14.03,-22.852 -29.07,-45.301 -46.01,-66.981 l -32.72,29.789"
         style="fill:#282828;fill-opacity:1;fill-rule:nonzero;stroke:none"
         transform="matrix(0.13333333,0,0,-0.13333333,0,600)" />
      <path
         id="path167"
         d="m 2194.32,1139.06 12.29,652.22 12.29,-652.22 z"
         style="fill:#282828;fill-opacity:1;fill-rule:nonzero;stroke:none"
         transform="matrix(0.13333333,0,0,-0.13333333,0,600)" />
      <path
         id="path168"
         d="m 2125.74,1016.83 c 0.16,1.68 0.43,3.24 0.8,4.71 0.37,1.51 0.92,2.76 1.25,4.6 0.77,3.43 1.98,6.58 2.83,10.08 l 2.38,10.72 c 0.78,3.59 1.29,7.38 1.96,11.05 1.37,7.33 2.19,14.96 3.23,22.47 1.09,7.53 1.93,15.17 2.92,22.75 3.38,30.5 6.09,61.33 8.27,92.2 4.34,61.79 6.85,123.87 8.74,185.96 1.87,62.11 2.97,124.27 3.68,186.44 l 1.84,186.59 c 2.34,-62.15 5.3,-124.3 7.15,-186.5 1.87,-62.2 3.35,-124.41 4.06,-186.68 0.69,-62.27 0.77,-124.58 -1.02,-187.02 -0.94,-31.23 -2.12,-62.5 -5.11,-93.86 -0.85,-7.85 -1.49,-15.69 -2.52,-23.57 -1.22,-7.87 -2.19,-15.7 -3.8,-23.63 -0.77,-3.96 -1.38,-7.89 -2.31,-11.88 l -2.88,-11.99 c -1.06,-4.03 -2.5,-8.22 -3.96,-12.23 -0.63,-1.94 -1.92,-4.14 -3.15,-6.18 -1.25,-2.05 -2.61,-4.02 -4.07,-5.87 l -20.29,11.84"
         style="fill:#282828;fill-opacity:1;fill-rule:nonzero;stroke:none"
         transform="matrix(0.13333333,0,0,-0.13333333,0,600)" />
      <path
         id="path169"
         d="m 2058.63,916.141 c 6.23,14.238 10.45,30.07 14.7,45.839 3.68,16.059 7.04,32.282 9.94,48.7 5.93,32.82 10.77,66.07 14.72,99.48 7.79,66.86 12.77,134.25 16.56,201.71 3.89,67.46 6.75,135.04 8.77,202.67 2.11,67.62 3.71,135.29 5.04,202.98 1.83,-67.67 3.92,-135.35 4.52,-203.08 0.56,-67.72 0.59,-135.48 -1,-203.28 -1.7,-67.77 -4.59,-135.58 -10.36,-203.41 -3.01,-33.9 -6.53,-67.85 -12.43,-101.69 -1.38,-8.451 -3.26,-16.9 -5,-25.33 -1.81,-8.421 -4.24,-16.8 -6.34,-25.199 l -3.85,-12.562 -2,-6.25 -2.45,-6.199 c -1.72,-4.129 -3.09,-8.27 -5.1,-12.372 -1.98,-4.109 -4.11,-8.128 -6.19,-12.148 l -19.53,10.141"
         style="fill:#282828;fill-opacity:1;fill-rule:nonzero;stroke:none"
         transform="matrix(0.13333333,0,0,-0.13333333,0,600)" />
      <path
         id="path170"
         d="m 2482.54,828.199 -15.42,28.731 -7.6,14.449 -6.84,14.812 c -4.52,9.899 -9.25,19.707 -13.57,29.7 l -12.14,30.339 c -4.26,10.032 -7.3,20.52 -10.84,30.809 -3.38,10.359 -7.1,20.621 -9.8,31.171 l -8.75,31.48 -7.28,31.82 c -9.12,42.55 -15.22,85.68 -18.95,128.85 -3.57,43.19 -4.97,86.4 -5.45,129.48 -0.2,43.09 0.62,86.04 1.35,128.92 1.02,42.84 1.44,85.76 2.69,128.64 l 3.28,128.66 c 1.56,42.9 2.68,85.79 4.61,128.68 1.95,-42.89 3.06,-85.78 4.62,-128.68 l 3.28,-128.66 c 1.2,-42.9 1.79,-85.76 2.57,-128.69 0.57,-42.9 0.99,-85.73 2.31,-128.41 1.24,-42.67 3.66,-85.19 7.69,-127.46 3.99,-42.26 10.77,-84.09 19.29,-125.47 17.47,-82.729 47.5,-162.229 86.5,-237.339 l -21.55,-11.832"
         style="fill:#282828;fill-opacity:1;fill-rule:nonzero;stroke:none"
         transform="matrix(0.13333333,0,0,-0.13333333,0,600)" />
      <path
         id="path171"
         d="m 2179.67,1352.62 c 16.03,-4.61 31.21,-10.08 46.32,-15.83 15.06,-5.81 29.95,-12.02 44.63,-18.9 14.67,-6.87 29.15,-14.43 43.07,-23.19 13.83,-8.82 27.39,-18.76 38.31,-31.47 -15.57,5.95 -30.43,11.71 -45.38,17.72 -14.89,6.01 -29.73,12.24 -44.35,19.14 -14.64,6.88 -29.1,14.37 -43.1,22.87 -13.93,8.56 -27.53,17.99 -39.5,29.66"
         style="fill:#ffffff;fill-opacity:1;fill-rule:nonzero;stroke:none"
         transform="matrix(0.13333333,0,0,-0.13333333,0,600)" />
      <path
         id="path172"
         d="m 2179.67,1352.62 c 18.78,2.02 37.77,-1.1 55.88,-5.59 18.15,-4.66 35.73,-11.08 52.65,-18.78 16.95,-7.68 33.29,-16.6 48.88,-26.76 15.51,-10.23 30.53,-21.56 43.23,-35.47 -17.35,7.16 -33.99,14.49 -50.64,21.91 l -49.58,22.41 c -16.47,7.51 -32.92,14.93 -49.5,22.1 -16.63,7.17 -33.18,14.1 -50.92,20.18"
         style="fill:#282828;fill-opacity:1;fill-rule:nonzero;stroke:none"
         transform="matrix(0.13333333,0,0,-0.13333333,0,600)" />
      <path
         id="path173"
         d="m 2443.95,1245.94 62.18,-65.42 c 0,0 4.79,-128.57 54.16,-247.09 49.38,-118.532 83.46,-190.551 110.3,-217.559 26.83,-27 40.08,-32.781 16.52,-30.859 -23.57,1.918 -134.36,53.226 -198.73,273.847 -64.37,220.601 -44.43,287.081 -44.43,287.081"
         style="fill:#282828;fill-opacity:1;fill-rule:nonzero;stroke:none"
         transform="matrix(0.13333333,0,0,-0.13333333,0,600)" />
      <path
         id="path174"
         d="m 2441.03,1320.39 60.42,-74.45 -2.41,61.99 -63.55,69.7 5.54,-57.24"
         style="fill:#282828;fill-opacity:1;fill-rule:nonzero;stroke:none"
         transform="matrix(0.13333333,0,0,-0.13333333,0,600)" />
      <path
         id="path175"
         d="m 2441.03,1407.93 58.89,-57.71 -2.01,73.58 -58.62,61.57 1.74,-77.44"
         style="fill:#282828;fill-opacity:1;fill-rule:nonzero;stroke:none"
         transform="matrix(0.13333333,0,0,-0.13333333,0,600)" />
      <path
         id="path176"
         d="m 2493.32,1543.09 -54.03,67.97 -2.04,88.11 55.57,-70.15 0.5,-85.93"
         style="fill:#282828;fill-opacity:1;fill-rule:nonzero;stroke:none"
         transform="matrix(0.13333333,0,0,-0.13333333,0,600)" />
      <path
         id="path177"
         d="m 2431.99,1884.87 56.78,-79.46 -6.44,297.54 -61.71,98.18 11.37,-316.26"
         style="fill:#282828;fill-opacity:1;fill-rule:nonzero;stroke:none"
         transform="matrix(0.13333333,0,0,-0.13333333,0,600)" />
      <path
         id="path178"
         d="m 2480.85,2173.54 -62.76,91.73 v 57.86 l 61.57,-91.92 1.19,-57.67"
         style="fill:#282828;fill-opacity:1;fill-rule:nonzero;stroke:none"
         transform="matrix(0.13333333,0,0,-0.13333333,0,600)" />
      <path
         id="path179"
         d="m 2413.02,2390.18 c 0,0 65.17,-87.79 65.12,-85.22 -0.05,2.56 -2.01,99.09 -2.01,99.09 l -66.94,77.3 3.83,-91.17"
         style="fill:#282828;fill-opacity:1;fill-rule:nonzero;stroke:none"
         transform="matrix(0.13333333,0,0,-0.13333333,0,600)" />
    </g>
  </g>
</svg>
